<svg xmlns="http://www.w3.org/2000/svg" xml:space="preserve" viewBox="0 0 1024 1024"><path d="M1 394V1h1024v1024H1zm247.5 26c6.5 2 13 5.1 19.6 5.8 13.1 1.3 26.2.1 38.8-4.6 0 2.8.3 5.1 0 7.4-3 21-5.5 42-9 62.8a254 254 0 0 1-32 88.7 89 89 0 0 0-13 54.3q.7 8 7.5 4.6c6.8-3.6 13.2-7.9 19.6-11.7-.2-.6 0-.3 0 0l-1.4 4.7a103 103 0 0 0-4.2 51.3c4.9 24 19.9 39.6 42.1 48.7 1.6.6 4.5.9 5.4 0 1.1-1.1 1.3-3.7 1.1-5.6-.5-4-1.5-8-2.6-13l2 1.5 1.2 1.5c14 18.2 30.8 32 54.3 36 6.1 1 9-.7 9-7 0-6.6-1-13.2-1.3-19.8-.3-4.1 0-8.2 0-12.8A185 185 0 0 0 509 758c46.3.3 87.9-13 123.2-45q-.3 3.3-.7 5.6c-2.2 7.7-4.7 15.4-6.5 23.2-.7 2.8-1 6.7.5 8.6 1 1.4 5.6 1.4 8 .5 8-3 16-6 23.4-10.2a88 88 0 0 0 32-31.9 78 78 0 0 1-1 12.4c-.8 5.8 1 7.7 6.5 5.7 4.3-1.6 8.7-3.4 12.3-6.2 24.6-19 35-46.9 28.8-77.7-1.8-9-4.6-17.9-6.8-26.6 4-.5 8.4-.6 12.6-1.5 10-2 19.5-5 26.8-12.5 6-6.1 5.2-10-2.6-13.3a77 77 0 0 1-38.5-34.4 201 201 0 0 1-21.8-65.9c-2.2-13.5-3-27.3-4-41-.2-1.7 1-4 2.4-5.3 6.7-6.1 14.1-11.6 20.5-18.1 30-30.3 39-67.6 34.7-108.8-1.3-13-9-20.2-21-21.2-5-.3-10 1.3-14.1 1.9 4-10.4 9-21.3 12.6-32.5a96 96 0 0 0 3.3-50 64 64 0 0 0-34.4-43.8c-27-14.6-56.6-18.6-86.5-19.9q-40.8-1.7-81.6 4.8-5.4-32.3-11.2-64.4a29 29 0 0 0-6-14.1c-6.9-7.3-18.6-4.1-22.5 6.5a220 220 0 0 0-8.3 31.9c-3.7 17.7-6.7 35.5-10.2 53.3a7 7 0 0 1-4.1 4.4 344 344 0 0 0-57.2 22.4 382 382 0 0 0-151.2 127.3 205 205 0 0 0-29.8 56.4c-5.1 16.9-1 31.6 11.9 41.5"/><path fill="#f7f7f6" d="M248.1 420c-12.5-9.8-16.6-24.5-11.5-41.4a205 205 0 0 1 29.8-56.4 382 382 0 0 1 151.2-127.3c18.5-9 37.4-16.8 57.2-22.4a7 7 0 0 0 4-4.4c3.6-17.8 6.6-35.6 10.3-53.3a220 220 0 0 1 8.3-31.9c4-10.6 15.6-13.8 22.6-6.5a29 29 0 0 1 5.9 14.1q5.8 32 11.2 64.4 40.8-6.6 81.6-4.8c30 1.3 59.6 5.3 86.5 19.9a64 64 0 0 1 34.4 43.8c3.5 16.7 2.1 33.7-3.3 50-3.7 11.2-8.5 22-12.6 32.5 4.1-.6 9.2-2.2 14-1.9 12 1 19.8 8.3 21.1 21.2 4.2 41.2-4.7 78.5-34.7 108.8-6.4 6.5-13.8 12-20.5 18.1-1.4 1.3-2.6 3.6-2.5 5.3 1.1 13.7 1.9 27.5 4 41a201 201 0 0 0 22 66 77 77 0 0 0 38.4 34.3c7.8 3.2 8.6 7.2 2.6 13.3a50 50 0 0 1-26.8 12.5c-4.2 1-8.5 1-12.6 1.5 2.2 8.7 5 17.5 6.8 26.6a76 76 0 0 1-28.8 77.7c-3.6 2.8-8 4.6-12.3 6.2-5.5 2-7.3 0-6.4-5.7q.9-6 .9-12.4a88 88 0 0 1-32 31.9c-7.3 4.2-15.4 7.2-23.3 10.2-2.5.9-7 1-8-.5-1.6-2-1.3-5.8-.6-8.6 1.8-7.8 4.3-15.5 6.5-23.2q.4-2.3.7-5.6c-35.3 32-76.9 45.3-123.2 45a185 185 0 0 1-123.5-45.2q-.1 6.8 0 12.8c.4 6.6 1.4 13.2 1.4 19.8 0 6.3-3 8-9 7-23.5-4-40.3-17.8-54.3-36l-1.2-1.5-2-1.6c1 5.2 2.1 9.1 2.6 13.1.2 1.9 0 4.5-1.1 5.6-1 .9-3.8.6-5.4 0-22.2-9.1-37.2-24.6-42-48.7a103 103 0 0 1 4.1-51.3l1.4-4.8c0-.2-.2-.5 0 0-6.4 4-12.8 8.2-19.6 11.8q-6.8 3.4-7.4-4.6a89 89 0 0 1 12.8-54.3 254 254 0 0 0 32-88.7c3.6-20.8 6.2-41.8 9-62.8.4-2.3.1-4.6.1-7.4a86 86 0 0 1-38.8 4.6c-6.7-.7-13.1-3.7-20-5.8m462.7-111.2q-.4 0 0-.9c12.7-19.9 23.1-40.7 25.6-64.6 1.7-16 1-31.7-8.1-46-10.9-17-27.1-26.2-45.6-32.3a200 200 0 0 0-58-10.2c-19.9-.4-39.8.2-59.8 1-9 .3-18 2-27.1 3.2-2.3.2-4.3.2-4.8-2.8l-9-54.8q-1.3-8.2-3-16c-1-4.3-3.6-7.5-8.2-8.4q-7.5-1.4-11 5.7c-1 2-2.3 4-2.7 6.3q-4.7 21.7-9 43.5l-8.2 40.3a5 5 0 0 1-3 3.1 344 344 0 0 0-69.5 28.1A372 372 0 0 0 263 335.5c-10.1 16-20 32.2-23.6 51.2-2.4 12.6 3.9 29.7 20.2 33.4 11.1 2.6 22.1 2.4 33.1.4 6.3-1.2 12.4-3.4 19-5.2q-.8 9.5-1.7 18.6c-2.3 18.4-4 36.9-7.4 55.1a289 289 0 0 1-36.2 98.4 71 71 0 0 0-8.7 49.8l29.4-21c-.8 5.3-2.5 9.4-3.8 13.6a104 104 0 0 0-5 52.8c4.7 23 19 37.8 41.5 46.3-4.2-9.9-2.7-19.6-1-30.6 7.7 22.7 37.7 49.8 63.7 50.5 0-5.2.5-10.4-.1-15.5a55 55 0 0 1 1.3-28.2c58.4 61.3 186.9 69.7 251.4-1.4.3 4.5 1.3 8.5.6 12.2-1.6 8.2-4.1 16.2-6.3 24.3l-2.2 8.8a94 94 0 0 0 65.2-56.3v30.6q11-3.3 19-11.6c21.5-22.2 26-48.5 18.1-77.6-2-7.4-4.8-14.5-7.3-21.8 24 0 40.6-6.2 45.7-16.9l-.6-.7-2.6-1.4c-18.1-7-31.6-19.3-40.9-36-17-31-24-64.7-27-99.5-.9-10.9.9-19.5 11.4-24.6q1.4-.9 2.7-2.1c35.6-29.9 48.3-68.7 44-114-.8-7.6-4.3-14.8-12.7-17.5q-9.2-2.6-17.8 1.9c-4.6 2.3-8.9 5-13.6 7.3"/><path fill="#06080a" d="M711.1 309.1q6.5-4 13.3-7.6a24 24 0 0 1 17.8-1.9c8.4 2.7 11.9 9.9 12.6 17.6 4.4 45.2-8.3 84-43.9 113.9q-1.3 1.2-2.7 2.1c-10.5 5.1-12.3 13.7-11.4 24.6 3 34.8 10 68.5 27 99.4a77 77 0 0 0 40.9 36.1l2.6 1.4.6.7c-5.1 10.7-21.8 16.9-45.7 16.9 2.5 7.3 5.3 14.4 7.3 21.8 8 29 3.4 55.4-18.1 77.6a44 44 0 0 1-19 11.6v-30.6a94 94 0 0 1-65.2 56.3l2.2-8.8c2.2-8 4.7-16 6.3-24.3.7-3.7-.3-7.7-.6-12.2-64.5 71-193 62.7-251.4 1.4a55 55 0 0 0-1.3 28.2c.6 5 0 10.3 0 15.5-25.9-.7-56-27.8-63.6-50.5-1.7 11-3.2 20.7 1 30.6-22.4-8.5-36.7-23.3-41.5-46.3a104 104 0 0 1 5-52.8c1.3-4.2 3-8.3 3.8-13.5l-29.4 20.9c-2.9-18.6-.3-35 8.7-49.8a289 289 0 0 0 36.2-98.4c3.4-18.2 5-36.7 7.4-55.1q1-9 1.7-18.6c-6.6 1.8-12.7 4-19 5.2-11 2-22 2.2-33-.4-16.4-3.7-22.7-20.8-20.3-33.4 3.5-19 13.5-35.2 23.6-51.2A372 372 0 0 1 409.4 204a344 344 0 0 1 69.4-28.1 5 5 0 0 0 3-3.1q4.3-20.2 8.2-40.3l9-43.5c.5-2.2 1.9-4.2 2.9-6.3q3.3-7 11-5.7c4.5.9 7 4.1 8 8.3q1.9 8 3 16.1l9.1 54.8c.5 3 2.5 3 4.8 2.8 9-1.1 18-2.9 27.1-3.2q30-1.4 59.9-1c19.7.4 39 4.1 57.9 10.2 18.5 6 34.7 15.2 45.6 32.3 9 14.3 9.8 30 8.2 46-2.6 23.9-13 44.7-26.2 65.2q0 1.4.2 2l-.2-.2v-.1q.1 0 .4 0 .5-.6.4-1M411.7 334l.8-.3 1.2-.8 4.6-2.7.6.9-6.3 7.3c23.6-1.5 46.3.8 69-2.1a6 6 0 0 0-2.7-2.3c-12.3-5-17-12-16.9-25.2.1-7.5 1-15 .9-22.4-.6-23 3.6-45.5 8.4-68l6-28c-3.3.8-5.6 1-7.6 1.8-18.1 8-36.4 15.4-54.1 24a314 314 0 0 0-76.6 52.5 357 357 0 0 0-63.5 73.3 146 146 0 0 0-20 42c-2.5 10.4 2.5 18.4 12.9 19.6q10.4 1 20.7-.3a73 73 0 0 0 33.5-14.6q26.3-19.2 52.1-39.1 24.5-19 48.9-38.4 4.7-3.7 9.5-7.2l.8 1q-4.2 4.7-8.1 9.7L412.5 333zM714 634v-.7l-1-2.9v-.9l-.3-1.1-13.8-25.9q-.4-.2-.9-1.1l-.2-.9q-.4-.1-.8-1.3l-1.2-2.8-1.7-2.5v-.8q-.7-3-.6-5.7c3.1 2.6 5.8 6.4 9.3 7.8 7.2 2.8 14.8 4.4 23 6.5l14.8-1.5c-35.8-27-47.2-65.7-57-105.6q-3.7 17.9-8.2 36.8l-7.4 32-7 29.6-.6.4-8.2 32q-.3 1.5 0 2.9c1 5.5 1.9 11 2.7 17.5q-1.4 13-3.6 26.8l-2.4 8.6c-.7 2.3-2.4 5-1.9 7a93 93 0 0 1 2.5 39.3q7.2-7.6 15.2-15.8l11-19a66 66 0 0 0 2.7-33.4c-1.3-9.5-3.6-18.9-4.7-28.2l3.5 4.6q7.4 10.7 14.7 22.1.4.5 1 1.9 1 1.2 2 3l1 2 1 1.3.1.7 2 2.3-.1.8 8.2 27.8 6-11.5.5-.5q.8-2.1 1.4-5-.1-.1.5-1l.5-3q-.2-.1.6-1l.4-4.3q-.2-1.3.7-3.7 1.5-15-2.7-30.2v-1.1zM509.8 144q.5-1 1.8-2 0-.4 1.2-1c4.2-2.4 5.8-5.6 4.7-10.7-1.6-7-2.3-14-3.6-21q-1.6-9-3.5-18l-1.8-.1-11 58.3 1.7 1.1 9.3-5.6q.1-.4 1.2-1m-6 44 3-1.9 3.1-2 12.4-8.8 1.4-1.4c.2-2.2.7-4.4.4-6.5l-4.9-28.8c-5.2 9.2-12 14.2-21.7 13.8L487.2 196h8.5v.7l-9.2 2a648 648 0 0 1-5.5 27.1l-1.2 6.1h2.2c17.8-2.4 33.8-9.9 49.4-18.2 1.1-.6 1.1-3.1 1.7-5.5l-7-33.1c-3 3.1-5.2 5.4-8 8q-3.4 2.8-8 5.8l-15.2 6-.4-1.1 6.3-3.8q1-.8 3-2m-94.1 174q.3-.4.4-.9-.1.1.7-.2l3.1-3.9c-5.3 0-10 .3-14.4 0q-7-.8-12.4 4.9-3.9 3.4-8.7 7-1 1.2-3 2.3-.5.7-2 1.8l-3 2.1-2 1.8-4.5 4h-.7l-2.2 2-.7.2-4.4 3.8-.6.1q-1.1 1-2.9 2l-1 1q-1.2 1-3 2l-1 1-3.5 2.8h-.7l-2.3 2-.7.1-6.3 5-.7.1c-1.4 1.5-4 2.8-4 4.4-1.3 13.7-2 27.4-3 41.1l10.1 5.6c2.6-11.6 8.4-21 14.8-30l.6-.3 2.5-3.7.6-.2q2.6-3.4 6-7l.8-1q.9-1.2 1.5-2.9 0 .2.9.2l5.7-5.4.4-1.6.8.2q17.9-18.7 36.6-37.8l1.7-2.5zm-50.5 364.6 2.8 1.4.2.6 5.3 3.5a77 77 0 0 1 4.6-40.1c.4-1-.7-2.8-1-4.1v-.8q-3-7.5-6-15.8v-1.3a90 90 0 0 1 4.6-47.4q.7-2.1 0-4.4-2-6.5-4.6-14.3l-7.8-24.8c-3.8-13.4-7.7-26.8-11.5-41q-5.2-20.7-10.5-42.6l-3.1-10.7-.1-.7-3-4.3v-.7l-4.6-6.3a11 11 0 0 0-2.5 4.6c-4 16.9-7.5 34-12.3 50.6-3.4 11.5-8.5 22.6-12.8 33.9l-.6.3-9.4 18.6-.6.3a41 41 0 0 1-3 5q0 .5-1 1.8l-2.4 5-.6.2-8 18.5c6.7-3.5 12.2-6.6 17.7-9.6q-.1 0 .8 0l4-1.4 17.3-9.5.7-.2q3.5-3 7.8-6.2 1-1.3 2.2-2.4c.1-.1.8.4.9 1.3q-3.3 7.9-7.4 16.4-.1.8-1 2L309 611c-4.2 8.6-9 17-12.4 26a70 70 0 0 0-1.6 49.8l6 13 5 7c3-10.2 5.7-19.5 9-29l16.6-32.1c.8-1.6 2-3 2.7-3.6-1.7 8.3-4 16.5-4.9 24.8a58 58 0 0 0 13.8 45l7 7.6 1.8.5-.1.8q1.5 1.1 3.2 3l1 .8 2.9 1.5zm68-363.5q-1.2 1.8-3 3.8l-.9 1-6.5 7.8-.5.2-1.4 2q.2-.2-.6.1l-6.4 6.8-.5.1q0 .4-1 1.3l-8.3 8 13.6 2.6 32 1.2c4.2-.3 8.4-.2 12.4-1.2 9.4-2.3 18.7-5.2 28.8-7.9q1.5 0 2.9-.5a144 144 0 0 0 38.9-24.6q4.1-4 8.2-8.2h-31.6l-43.4.3q-11.7-.1-23.3.5c-2 0-4 2.1-5.7 3.5 0 0-.1-.3-.7 0q-1 1.5-3 3.2m106.5-56.4-.6.2c-15.9 9.5-33.7 12.2-51.5 14.5-1.8.3-3.7-1-5.8-1.7 8.1-1 15.6-2 24-2.9l12.9-3.2q-3.7-.6-5.4-1.5a100 100 0 0 0 34.7-15.8c1.8-1.3 3.8-4.1 3.7-6q-1.5-16-3.8-32.6c-19.7 17.3-43.8 18.3-69 20.6v32.8c0 9.3 5.6 16 15 16.7q18.8 1 37.8.7c9.3 0 16.7-4.4 19.5-13.5 1.6-5.5 1-11.7 1.5-17.6l-1.2-.5-6.2 5q-.3 0-1 1zm105.5 294.7 2.3 1.8q.3-2.6.7-4 12.8-49 25.2-98c4.3-17.1 9.4-34.5 8.3-52.2-1.3-21.5-4.5-42.9-7.4-64.2-1.5-10.7-4.2-21.3-6.4-32h-5.1q-46.7.7-93.5 1.2c-4.1 0-7 1.2-10 4.2-18 18.5-37.3 35.4-62.2 44.5a150 150 0 0 1-72.5 10.2c-10.9-1.4-21.6-4-33.5-6.2L362 434.2a50 50 0 0 0-11 44.6c3.3 15.1 6.2 30.3 10.1 45.3 6.6 25 13.8 49.9 20.8 75 1.2-.6 1.6-.6 1.8-.9 27-33.9 63.7-49.5 105.7-54q32.5-3.4 64.2 4.9c33.6 8.5 63.5 23.5 85.6 52.4m-47.3 117c6-4.1 12.3-7.9 18-12.4a68 68 0 0 0 24-75.4 84 84 0 0 0-38.2-45.5c-43.5-26-89.9-30.5-138.2-16.7-23.7 6.8-44.9 18.4-59.9 38.7-16.7 22.6-22.6 47.2-9.3 73.7 9.5 18.7 25.3 31 43.7 39.8a176 176 0 0 0 93.6 16.5c23.1-2 45-7.7 66.3-18.8m6.6-551.4c-20.6-.6-41 1.5-61.5 4.5l.5 3.4c2.5 12.2 5.3 24.3 7.4 36.5q5 27.6 9 55.4 2.6 19.2 2.9 38.6c0 11-3.9 20.9-14 27.2-1 .6-1.8 1.5-3.6 3 3.2-.3 5-.5 6.7-.5q54.8-.6 109.4-1 8-.3 16 0c3.6.1 5.8-1.2 7.8-4.1 8.6-13 18.2-25.5 26-39 11-19 19.4-39.3 19-62a48 48 0 0 0-16.9-36.4 98 98 0 0 0-44.8-20.5 263 263 0 0 0-63.9-5.1M729 386.5a111.6 111.6 0 0 0 9.8-64.7q-1.2-9.1-10-5c-4.4 1.8-9.1 4-12.2 7.4-8.6 9.2-16.2 19.3-24.5 28.8-6 6.8-8.9 14-6.2 23.3 1.7 6 1.9 12.4 2.9 19.5l19.5-29.5 1.1.5c-4.8 12.6-9 25.5-14.7 37.6-3.8 8.2-2.8 15.7-1.3 24 15.2-11.3 27-24.8 35.6-41.9M501.2 271.7l2.9-.7c12-2.7 23.7-6.2 34-13.1 1.4-1 3-3.3 2.7-4.7q-2.8-18.9-6.2-38.8c-16.6 13.3-35.3 18-55.8 19.9l-5.7 42.5z"/><path fill="#fefdfb" d="M639 601.1c-21.9-28.5-51.8-43.5-85.4-52q-31.6-8.3-64.2-5c-42 4.6-78.6 20.2-105.7 54.1-.2.3-.6.3-1.8.9q-10.7-37.6-20.8-75c-3.9-15-6.8-30.2-10.2-45.3a50 50 0 0 1 11-44.6c7.9-9.5 16-18.8 23.2-27.4 11.9 2.2 22.6 4.8 33.5 6.2 25 3.4 49-1.6 72.5-10.2 24.9-9.1 44.2-26 62.3-44.5 2.9-3 5.8-4.2 10-4.2l93.4-1.2h5.1c2.2 10.7 5 21.3 6.4 32 3 21.3 6 42.7 7.4 64.2 1.1 17.7-4 35-8.3 52.2q-12.5 49-25.2 98-.3 1.4-.7 4-1.4-1-2.4-2.2m-68.6-134.7c-.3 3.1-1.3 6.4-.7 9.4 1.2 6.5 2 13.5 5.2 19.2 5.7 10.4 18 10.9 25.8 2a31 31 0 0 0 7.2-18.6c.8-9.6-1-18.7-6.5-27.1q11.1-3.8 21.3-7.7c6-2.4 8.7-8.8 6.6-14.3-2.2-5.8-7.3-7.9-14.3-5.6l-25.8 8.3q-18 5.8-36 11.8c-6.6 2.2-9 7.7-7.3 13.8 1.6 5.6 8.6 8.8 14 6.5 3.8-1.6 7.8-2.5 12.2-3.8zm-116.4-.2q8.6-2.4 9-10.3c0-5-3-8.8-9-10.6q-28.5-8.5-57.2-16.6c-3-.8-6.7-.6-9.7.3-4.3 1.2-6 5.2-5.8 9.4.1 5 2.7 8.8 7.7 10.4l19.2 5.7v.7l-1.8 5.1a38 38 0 0 0 4.8 37.1c7 9.4 18.8 9 25.6-.6a34 34 0 0 0 5.6-24q-.7-4.4-1.3-8.4c4.3.7 8.1 1.3 12.9 1.8"/><path fill="#fefdfc" d="M591.6 718.7a172 172 0 0 1-66 18.5c-32.7 2.8-64-2-93.6-16.5-18.4-8.9-34.2-21.1-43.7-39.8-13.3-26.5-7.4-51.1 9.3-73.7 15-20.3 36.2-31.9 60-38.7 48.2-13.8 94.6-9.3 138 16.7a84 84 0 0 1 38.3 45.5c9.1 27-.1 56.4-24 75.4-5.7 4.5-12 8.3-18.3 12.6m-142.7-98.4q-3-1.2-6-2.1c-6.6-1.5-12 2.4-12.8 9-1.1 9.8 7.6 22.7 17.2 25.4q7.7 2 13.2-3.8 5-5.1 2.7-12.3a29 29 0 0 0-14.3-16.2m119.5.4q-9.1 4.9-12.8 14.7c-1.8 5.2-1.3 10 3 14 4 3.8 9.6 4.8 14.7 2.3a25 25 0 0 0 12.6-14.2c2.2-5.6 4.3-11.6-.7-16.8-5-5-10.7-2.5-16.8 0"/><path fill="#111e34" d="M412.9 333q6.4-9.3 12.9-18.2 3.9-5 8.1-9.8l-.8-1-9.5 7.2q-24.4 19.5-48.9 38.5a2399 2399 0 0 1-52.1 39.1 73 73 0 0 1-54.2 15c-10.4-1.3-15.4-9.3-13-19.6a146 146 0 0 1 20.1-42.1 357 357 0 0 1 63.5-73.3 314 314 0 0 1 76.6-52.5c17.7-8.6 36-16 54-24 2-.9 4.4-1 7.7-1.8l-6 28c-4.8 22.5-9 45-8.4 68 .2 7.5-.8 15-.9 22.4-.1 13.3 4.6 20.2 17 25.2q1.4.5 2.6 2.3c-22.7 3-45.4.6-69 2.1l6.3-7.3-.6-.9q-2.1 1.4-5 2.7zM599 167c21.6-.5 42.7.5 63.4 5 16.3 3.7 32 9.2 44.8 20.6a48 48 0 0 1 16.8 36.3c.5 22.8-7.8 43-19 62.2-7.7 13.4-17.3 25.9-26 38.9-1.9 2.9-4.1 4.2-7.8 4q-8-.2-16 0L546 335c-1.8 0-3.5.3-6.7.6 1.8-1.5 2.7-2.4 3.6-3 10.1-6.3 14-16.2 14-27.2q-.3-19.4-3-38.6-3.9-27.8-8.9-55.4c-2.1-12.2-5-24.3-7.4-36.5l-.5-3.4c20.6-3 41-5 62-4.5m75.5 77q-9 .6-18.3 1c-3 0-5.4.3-7.2 3.2-1 1.5-3.3 2-5.3 3.2-2.2-12-3.8-13.4-15.4-13.4h-1c-11 0-11.7.6-13.7 11q0 .3-1.4 1c-1.8-4.8-5.5-6.4-10.6-6q-16.4.6-32.8 1c-1.9.2-3.7 1.4-5.6 2 .8 2 1 4.7 2.5 6q15.9 14 32.1 27.4c4 3.3 4.2 6 1.3 10.2q-4.9 7-9.2 14.6-2.5 4.6 2.7 6 2.6.8 5.3.8 16.5.2 32.8 0 15.3 0 30.6-1.2c2.5-.2 6-2.8 6.9-5.1.7-2-1.3-5.5-2.9-7.7-2.8-3.8-6.3-7.1-9.8-11 7.8-7.3 15.3-14 22.6-21.1a308 308 0 0 0 15.8-16.5c1-1 .6-3.4.4-5 0-.5-1.9-1-2.9-1z"/><path fill="#fcfbfa" d="M729 386.9a119 119 0 0 1-35.6 41.6c-1.5-8.4-2.5-15.9 1.3-24 5.7-12.2 9.9-25.1 14.7-37.7l-1.1-.5-19.5 29.5c-1-7.1-1.2-13.6-3-19.5-2.6-9.4.3-16.5 6.3-23.3 8.3-9.5 16-19.6 24.5-28.8 3.1-3.4 7.8-5.6 12.2-7.5 5.8-2.5 9.2-1.1 10 5.1a112 112 0 0 1-9.9 65"/><path fill="#11375a" d="M693 587q.6 2.9.7 6.5-2.3-.2-4.4-1.2c-.5 1.4-1.2 2.5-1.2 3.6q.5 15.9 1.3 31.8 1 14.9 2.5 29.6l-14.7-21.6q-1.4-2.3-4.1-4.7-.9.1-1.2-.4a98 98 0 0 0-10.9-32v-5.7l.3-.1q.9-1 1.2-2l11.5-46.3c.6-2.3 2-4.4 3.2-6.3q2.7 4 4.5 8c-.3 1.2-.7 2.3-.4 3.1 2.2 5.8 4.9 11.4 6.6 17.3 1 3.7 1.2 8 .6 11.9-.6 3.7 0 5.8 3.6 6.9z"/><path fill="#ca2d19" d="M282.9 587.5q.1-.6 1-1.5 2-2.7 3-5.2l.3.1q5-9.6 9.7-19h.3q1.9-2.1 3-4.3c10-21.1 16-43.5 20.8-66.2l2.9-13.5 5.3 2v.4q1.4 2.5 3 4.6l-.1.5q1.2 6.9 2.7 14 .1 3-.1 5.9a136 136 0 0 1-15.4 49q-9.5 18.2-19.6 36.7-3.5 4.6-7.1 9l-3.5 2.2-.4-.1c-4.6 1.4-8.7 2.9-13.3 4.5l4.5-13.7h.3q1.6-2.7 2.7-5.4"/><path fill="#135576" d="M355.8 724q-.4.2-.8-.8-1.5-2-3-3.1l-.2-.3q-1-.7-2-.9a87 87 0 0 1-6.7-7.9c0-10.2-1-19.9.7-29a626 626 0 0 1 11.5-49.8c2.1-8.3 5.7-16.2 9-24 2.5 6.3 4.9 12.1 2.6 19q-3 8.8-4.4 18.1A47 47 0 0 0 365 671v1q3 8.5 6.1 16v.4a95 95 0 0 0-6.3 37.3c0 .7-1.9 1.6-2.9 2.4v-.4q-1.5-1.1-3-1.6 0 .1 0-.4a15 15 0 0 0-3.1-1.6"/><path fill="#2c6b3f" d="M364 608c-3 8-6.6 16-8.7 24.2a627 627 0 0 0-11.5 49.7c-1.6 9.2-.7 19-.9 28.9a55 55 0 0 1-13.5-43.9c.8-8.3 3.2-16.5 5.2-25.4 1-4 1.6-7.3 2.6-10.7a32 32 0 0 0 2.2-6.6l3.9-8 .2-.2 14-36q3.8 11.9 7.3 24.6z"/><path fill="#d67905" d="M300 590.8q9.7-18.2 19.3-36.6a143 143 0 0 0 15.7-48.7q1.4 2.5 2 5.1l7.8 28.8q.2 4 0 7.9c-.8 4.9-.8 9.6-2 14-2.5 10-5.8 20-8.8 29.4q-.9-2.5-1.9-4.5l-3.7 1.9q-3.6 2-7.3 3.5l2-8.5q-1-.6-1.3-.7-1 1.2-2.7 2.3-4.3 3.2-7.9 6.5h-.4q-6.2 2.3-11.8 4.8v-.4z"/><path fill="#103151" d="M691.9 657.6q-1.5-15-2.5-30-.9-15.8-1.3-31.7c0-1 .7-2.2 1.2-3.6l4.5 1.6q.4-.1.3.4.9 1.7 1.9 2.7l1 2.8q.7 1 1 1.2l.1.9q.6 1 1 1.2 6.8 12.5 13.5 25.7l.3 1.2.1 1 1 3v.3q.4 1.6 1 2.7v1.1l2.1 30.2q.1 1.3-.4 3.6l-.7 4.2q0 0-.3.9l-.7 3q0 .2-.3 1-1.1 2.9-1.6 5h-.4c-4.8 1.9-7 0-8.4-4.2q-2.4-6.5-5.4-12.7 0 0 0-.4-1-1.6-2-2.7v-.3l-1-1.7q-.6-.4-1-1.9-1-2-2.1-3z"/><path fill="#2c6b3f" d="M442.8 398q-15.6-.4-31.4-1.4a42 42 0 0 1 6.1-4.4l6-4q2-1.5 3.7-3h.4l10.9-8.2q.5-.1 1-.7l4-3.2q.5-.2 1-.8l5-4.2 1-.8 10.3-11.2q21.2-.4 42.8 0-7 6.1-15 11.9l-30.4 20.2q-7.6 5-15.4 9.9"/><path fill="#ca2d19" d="M374 372.7q.6-.8 2-1.4c1.3-.7 2-1.6 3-2.6a95 95 0 0 1 8.7-6.7q.9 1 .6 2-7.7 12.5-14.3 25.1c-2 4-2.6 8.7-3.8 13.1h-.3q-.6.3-1.4.9l-5.2 6.2q0-.2-.5-.2-1 1.6-1.7 3.2.1.4-.9.7c-3.7 1.5-6.3 3.2-6 7.2l-.4-.1q-1.7 2-2.7 4h-.4q-2.4 1.4-3.8 3.2a491 491 0 0 0-10 18.8c-1 2.3-1.7 5-5 3.6q-4.4-1.6-3.8-6.6 1.4-11.5 1.8-23.1c.3-6-.7-12.2 4-17.2l.4.1 6.6-5h.4l2.6-2.1h.4l3.6-3q-.1-.6 1.1-.8a13 13 0 0 0 3-2.3q-.2-.4 1-.7c1.4-.7 2.1-1.5 2.9-2.2l.4.1q2.6-2 4.6-4h.4q1.5-1 2.5-2.1h.5q2.5-2 4.6-4.2.6-.7 2.2-1.6 1.8-1.2 2.8-2.3"/><path fill="#382d60" d="m682 546-4.8-8.2-1.3-7 7.7-36.2c9.8 40 21.2 78.5 57 105.6-5.5.5-10 1-15.2 1.2-4.7-4.8-9.3-9-13-13.8Q697.2 566.9 682 546"/><path fill="#11375a" d="m489 368 15-12c10.2-.3 20.1-.3 31-.3q-4.2 4.3-8.3 8.2a144 144 0 0 1-39 24.6q-1 .5-3.6.5-6.5 1-11 1.8l10.3-16.4c.9-1.3 2.4-2.2 3.5-3.4q1.1-1.5 2-3"/><path fill="#2c6b3f" d="M651.7 672q1.5-13 3.5-26.6.7-.7 1-.1c4 7.4 8.1 14.3 11.7 21.6 2.4 5.2 4 10.7 6.1 16.5l1.2 10q-5.2 9.1-10.9 18.1-1-4-1.4-7.6c-2-11.2-3.7-22.5-11.2-31.8"/><path fill="#efb606" d="m539.6 301.9 5.9-5 1.2.6c-.4 5.9.1 12-1.5 17.6-2.8 9.1-10.2 13.4-19.5 13.5a527 527 0 0 1-37.9-.7c-9.3-.6-14.8-7.4-14.9-16.7v-32.8c25.2-2.3 49.3-3.3 69-20.6 1.4 11.2 3 21.8 3.8 32.5.1 2-2 4.8-3.7 6.1a103 103 0 0 1-38.4 16.8l-6 1q-2.5.4-4.5.3.6-1.2 1.1-1.3a103 103 0 0 0 39.3-13.6c12.6-7.3 11.6-5.7 9.5-17v-3l-3-16.8-12.2 6.4c-14.9 8-31.5 8.5-47.7 10.7-3.2.4-4 1.3-4.2 4.4-.4 8.5-1.4 16.9-1.7 25.3 0 2.4 1.4 6.7 2.8 7 3.5.7 7.4-.4 11.2-.7q1.7-.1 4 .2l6.7.9-23.1 2.8c2.1.7 4 2 5.8 1.7 17.8-2.3 35.6-5 51.9-14.3-2.7 2.3-5.5 5.3-8.8 6.3-14.1 4-28.3 7.4-42.5 11 1.3.4 3.2 1.4 5.1 1.4 12.1.5 24.2 1.1 36.3 1 16.5-.2 22.5-10.2 20.8-25.8z"/><path fill="#e6b80b" d="M444.1 372.5q.1.4-1 .5a25 25 0 0 0-4 3.4q.1.4-1 .6-8 1.5-10.9 8.3l-.4-.1q-2.1 1.5-3.6 3h-.5c-2.8.3-5.5.5-5.5 4h-.4c-4.6.6-8.8 1.4-14.3 2.4 2-3.5 3.3-5.6 4.8-7.8q.5-1 .6-2l.4.2c4-1 6.6-3 6.6-7.2l.3.1q1.1-1 1.6-2.2l.3.2c3.7-1.9 7-3.7 6.8-8.2q-.2-.4.8-.7c1.9-1.4 3.1-2.7 4.7-4.2l1.4-3q0 .1.4.1c8.3-3.8 16.7-1.2 25-1.8l-6 9.3q0 .5-1 .6-3 2.3-5 4.5"/><path fill="#e09d06" d="m539.4 302 5-.9c1.7 15.6-4.3 25.6-20.8 25.8-12 .1-24.2-.5-36.3-1-1.9 0-3.8-1-5-1.3 14-3.7 28.3-7.1 42.4-11.1 3.3-1 6.1-4 9.1-6.4q-.1-.4.4-.2 2.6-2 4.7-4.3 0-.4.5-.7"/><path fill="#103151" d="M681.7 546.2c10.4 13.7 20.4 27.7 30.8 41.4 3.6 4.8 8.2 9 12.5 13.8-7.4-1.8-15-3.4-22.2-6.2-3.5-1.4-6.2-5.2-9.5-8q-.4-.2-.3-.5l-.8-1.6c-3.8-.8-4.3-3-3.7-6.6a29 29 0 0 0-.6-12c-1.7-5.8-4.4-11.4-6.6-17.2q-.2-1.3.4-3"/><path fill="#d67905" d="M370.6 402.3c.8-4.5 1.4-9.2 3.4-13.2a285 285 0 0 1 14.7-25.2c3.2-4.6 7.2-5.5 11.9-5 2 .3 4-.2 5.9.2 1.3.3 2.5 1.4 3.7 2.1h-.3l-.8 1h-.2q-1.2 1.3-1.9 2.7-17.9 18.8-36.4 37.4"/><path fill="#f0dd0f" d="m500.7 271.8-27.6 5 5.7-42.5c20.5-1.8 39.2-6.6 55.8-19.9 2.2 13.4 4.4 26 6.2 38.8.2 1.4-1.3 3.7-2.6 4.7A99 99 0 0 1 504 271zM478 254.3l-1.9 16.3q-.4 3.8 3.5 3.3c17.5-3 35-5.9 51.4-13.3 7-3.2 8.3-5.5 7.1-13.4l-1-7.9-3.4-20.1h-1.8a96 96 0 0 1-46.5 16c-1.8.1-4.6 1.8-5 3.2-1.2 5-1.6 10-2.4 15.9"/><path fill="#135576" d="M488.6 368a9 9 0 0 1-1.7 3c-1.1 1.2-2.6 2.1-3.5 3.4q-5.2 8-10.3 16.4l10.6-1.8q-13.5 4.2-27.6 8c-4 .9-8.2.8-12.8 1.1q7-4.9 15-9.9z"/><path fill="#efb606" d="m481.7 223.4 4.8-24.7 9.3-2-.1-.7h-8.5l10.3-43.6c9.8.4 16.5-4.6 21.7-13.8l4.9 28.8q.3 3-.7 6.6-.4.1-.4-.5l-4.5-29.2c-5.8 5.4-10.7 9.8-18 10-.8 0-2.1 1.8-2.4 3q-3.9 15.6-7.4 31.4-.5 2.8-.5 5.5l9.8-4.2.2.2-5.7 3.6.4 1.2q7.4-3 15.6-6 .6-.1.5.4c-6 3.4-11.6 7-17.7 9.5-3.4 1.4-5.8 2.5-6.5 6.6-1.1 6.6-3.2 13-4.8 19.5v-.4z"/><path fill="#f1cf16" d="M651.5 672.4c7.7 9 9.3 20.3 11.4 31.5l1.2 7.8q-7.3 8.2-14.6 15.8A93 93 0 0 0 647 688c-.5-2 1.2-4.6 1.9-7zm5 12.7-3.3-7.7-1.7.3c-.8 3.8-2.9 7.9-2 11.3 2.3 10.8 3.2 21.5 1.8 34 3.4-3.3 6-5.6 8.1-8.2 1.2-1.4 2.4-3.6 2.2-5.2q-2-11.8-5-24.5"/><path fill="#efb606" d="m508.1 145.1-8.8 5.5-1.7-1 11-58.4h1.8q1.9 9 3.5 18c1.3 7 2 14.2 3.6 21 1.1 5.2-.5 8.4-5 10.8q-.6.1-.5-.4c3.9-4 4.5-8.3 3.1-13.4s-1.4-10.1-2.3-15.2q-1.2-6-2.5-11.8l-2.2.2-8 46.8z"/><path fill="#f1cf16" d="M533 209c-.5 1.6-.5 4.1-1.6 4.7a148 148 0 0 1-49.4 18.2h-2.2c.5-2.1.8-4 1.5-6.5q.6-.5.7-.4v.4l.4 4.1h1.4c12-4.2 24.3-8.2 36.2-12.8 4.3-1.7 8-5 12.2-7.7z"/><path fill="#e7331e" d="M329.1 479.5q-2-.4-5.2-1.6l-2.9 13.5c-4.8 22.7-10.9 45-20.8 66.2q-1.1 2.2-3 4.2c4-11.1 9.1-22.2 12.5-33.7 4.8-16.7 8.3-33.7 12.3-50.6.3-1.1.6-2.2 2.5-4.6zm4.4-76.6c-4.3 4.9-3.3 11-3.6 17q-.5 11.7-1.8 23.2-.6 5 3.7 6.6c3.4 1.4 4-1.3 5.2-3.6a491 491 0 0 1 10-18.8q1.2-1.8 3.8-3.2c-6 9-12 18.4-14.5 30l-10-5.6q1.1-20.6 2.8-41c.2-1.7 2.7-3 4.4-4.6"/><path fill="#e1a207" d="M295 686a68 68 0 0 1 1.6-49c3.4-9 8.2-17.4 12.8-26.2q.5 0 .6.6c-2.8 6.1-6 11.8-8.5 17.7a80 80 0 0 0-7.4 47.8c.3 1.5 2 2.8 2.9 4.4q-.4 1.6-1.2 2.8t-.8 2"/><path fill="#f0dd0f" d="M345 547v-7.6q.6-.4.8-.3l11.6 40.5q-6.6 18.4-14 36 0-2.6.8-5l9.2-22.4c1.7-4.3 2.7-8.5.9-13.3-2.6-7-4.2-14.3-6.4-21.4-.6-2.2-1.9-4.3-2.9-6.5"/><path fill="#176890" d="M364.3 608.2q-.2-1.5.5-3.2a132 132 0 0 1 5 13.3q.6 2.3 0 4.4a92 92 0 0 0-4.7 47.8 44 44 0 0 1-2.6-25.2 102 102 0 0 1 4.4-18.2c2.3-6.8 0-12.6-2.6-18.9m311.1 84.9q-1-4.4-1-9.7c1-.8 2.3-1.1 2.3-1.6.5-4.7 1.6-9.6 1-14.2-1.3-9.8-3.6-19.4-5.4-29.2-.4-2.4-.2-5-.3-7.5h.7c2.1 9.5 4.4 19 5.7 28.4a65 65 0 0 1-3 33.8"/><path fill="#135576" d="m336.9 630.9-2.2 10.1q-1.8 2.4-3.1 4.7-8.2 16.2-16.8 32 2.6-7.4 5.5-14.4l.2-.3q8.4-16.2 16.3-32.2zM675.7 531q.9 2.7 1.3 6.5c-1 2.5-2.4 4.6-3 7l-11.5 46.3q-.3.8-1.3 1.9 3.1-14.5 6.8-29.4z"/><path fill="#f0dd0f" d="m320.3 663.3-5.8 14.4-8.5 29q-2.8-3.6-5-7.2-.2-.6.4-.5l4.3 2c2.5-8.7 4.5-17.1 7.4-25.3 1.6-4.4 4.8-8.3 7.2-12.4"/><path fill="#176890" d="M362 728.4c1-1.1 2.9-2 2.8-2.7-1-12.9 2.2-25 6.2-37.4.4 1 1.5 2.8 1 3.8a77 77 0 0 0-4.5 40zm294-83.5h-.8q-1.8-8.3-3-16.6-.4-1.5-.1-3 4-15.8 8.5-32.1.4 2.1 0 5.6-3.5 12.3-6.2 23.6c-.6 2.5-.4 5.3-.2 7.9q.7 7.4 1.7 14.6"/><path fill="#e9c411" d="M450.4 367.3q2.4-4 5.8-9.2c-8.3.6-16.7-2-25.1 1.7 1.6-1.2 3.5-3.2 5.5-3.3q11.5-.5 23.7-.5-4.4 5.6-9.9 11.3"/><path fill="#11375a" d="M699 669.4q2.9 5.8 5.3 12.4c1.5 4.1 3.6 6 8.4 4.3q-2.2 5-5.6 11.5z"/><path fill="#efb606" d="M533 208.6q-.2.6-1 .1-3.9-14.7-6.8-29.3l-6.2 3.5-.2-.2 7.2-7.6c2.5 11.7 4.8 22.4 7 33.5"/><path fill="#e09d06" d="M345.8 538.7c0 .4-.5.3-.7.3q-4.3-14.3-8-28.4-.7-2.5-1.8-5.4c-.4-2-.4-3.7-.4-6.3l.5-2.6q5.2 20.9 10.4 42.4"/><path fill="#e7331e" d="M279.6 593q-1.7 6.4-4.2 13.6l13.3-4.5c-5.2 3-10.7 6-17.3 9.6z"/><path fill="#d98404" d="M410.5 361c-1.5-.5-2.7-1.6-4-1.9-2-.4-4 .1-6-.1-4.6-.6-8.6.3-11.5 4.8q-.7-.7-1-2 4.3-5.6 11.5-4.8c4.5.3 9 0 14.4 0-1.4 1.7-2.2 2.8-3.4 4"/><path fill="#e9c411" d="m407 387-4.5 7.6c5.5-1 9.7-1.8 14.3-2.5q-2.4 2.1-5.8 4.4c-4-.4-7.8-1.2-12.9-2.1a169 169 0 0 1 8.6-8q.4.4.3.6"/><path fill="#e09d06" d="M299 596q5.6-2.4 11.8-4.9a242 242 0 0 1-17.4 9.4q-.4-.3-.4-.5 3.1-4.4 6.7-9a22 22 0 0 1-.8 4.7q0 .5.1.3"/><path fill="#e7331e" d="M296.6 562q-4.2 9.3-9.4 18.9a292 292 0 0 1 9.4-18.8"/><path fill="#11375a" d="M717.4 668q-1.4-14.2-2.4-29.6a72 72 0 0 1 2.4 29.6"/><path fill="#282626" d="m504 313.2 2.3-.6 6.4 1c-4.8 1.3-8.9 2.3-13.4 3.3q-3.4-.2-7-1.1.1-.7.7-.9a28 28 0 0 1 5-.5q3.4-.5 6-1.2"/><path fill="#e1a207" d="m322.9 583.4-2 8.5a111 111 0 0 1-5 8l-.1-.1z"/><path fill="#efb606" d="M521.8 175.6q-5.9 4.3-12.3 8.5-.5 0-.5-.4 6-4.7 12.2-8.6z"/><path fill="#f0dd0f" d="M295 686.4q.1-1.4.8-1.9 2.9 7.4 5.2 14.5l-.2.2z"/><path fill="#176890" d="M371 687.6a310.3 310.3 0 0 1 0 0"/><path fill="#e7331e" d="M335.3 496c0 1-.2 1.5-.4 2.5q-1.5-6-2.8-13.2z"/><path fill="#f0dd0f" d="M423.6 367.8c.4 4.4-2.8 6.2-6.5 8q2.7-3.9 6.5-8"/><path fill="#e09d06" d="M311.5 591.1q3.3-3.1 7.3-6.3a71 71 0 0 1-7.3 6.3"/><path fill="#efb606" d="m510.9 188.9 7.6-6q.4-.2.4.4-3.9 3.2-7.9 5.7z"/><path fill="#f0dd0f" d="M414.6 378c.3 4-2.3 6-6.4 7q2.8-3.5 6.4-7"/><path fill="#e1a207" d="M309.6 610.6a78 78 0 0 1 5-8.6q.4-.2.4.4-2.5 4.6-5 8.6z"/><path fill="#e7331e" d="M354.4 420c-.5-3.8 2.1-5.5 5.6-7a58 58 0 0 1-5.6 7M340.6 398a49 49 0 0 1-6.4 5q2.7-2.5 6.4-5m23 11.3a34 34 0 0 1 5-5.8q.5.6.5.8-2.4 2.4-5.5 5"/><path fill="#efb606" d="M538.6 302.8a30 30 0 0 1-4.4 4q1.6-2 4.4-4"/><path fill="#e7331e" d="M368.6 376.7a32 32 0 0 1-4.4 4.2q1.7-2 4.4-4.2m-8 6.3a29 29 0 0 1-4.4 4q1.7-2 4.4-4m-78 204.8a22 22 0 0 1-2.4 5q.8-2.3 2.4-5"/><path fill="#f0dd0f" d="M429.1 363q-1.8 2-4.2 4 .8-2 3-4z"/><path fill="#e7331e" d="M332.2 484.5q-1.6-1.5-3.1-4.3 1.5 1.6 3 4.3M286.7 581q-.8 2.3-2.4 5 .7-2.4 2.4-5m64.8-157a14 14 0 0 1 2.4-3.9q-.7 1.9-2.4 3.9m-3.8-31.2a18 18 0 0 1-3.4 3.1q1.3-1.5 3.4-3"/><path fill="#176890" d="M352 720.4q1.5.8 3 2.6-1.6-.8-3-2.6"/><path fill="#e7331e" d="M378.6 368.9q-.8 1.3-2.4 2.4.9-1.4 2.4-2.4"/><path fill="#11375a" d="M713.4 685.8q0-2 1.2-4.6 0 2.1-1.2 4.6"/><path fill="#e7331e" d="M292.6 600q.5.1.5.6-1.5.9-3.6 1.6a13 13 0 0 1 3.1-2.2"/><path fill="#11375a" d="M692.9 659.4q1 .7 2 2.5a9 9 0 0 1-2-2.5"/><path fill="#176890" d="M356 724.3q1.2.3 2.9 1.4-1.3-.2-3-1.4m3.2 2q1.3.2 2.8 1.5-1.3-.3-2.8-1.4"/><path fill="#11375a" d="M697 666.4q1 .6 2 2.3a7 7 0 0 1-2-2.3"/><path fill="#e7331e" d="M361.3 412q.4-1.2 1.6-2.8-.3 1.4-1.6 2.9"/><path fill="#e9c411" d="M429.4 362.8q-.6.3-1.2.1.6-1.4 2.3-3-.2 1.2-1.1 3"/><path fill="#d98404" d="M407.3 364.8a7 7 0 0 1 1.6-2.6 7 7 0 0 1-1.6 2.6"/><path fill="#e7331e" d="M343.5 395.8a7 7 0 0 1-2.3 2.1q.6-1 2.3-2"/><path fill="#efb606" d="M509.2 184.2a12 12 0 0 1-2.7 2q-.6 0-.5-.6 1.5-1 3-1.6z"/><path fill="#efb606" d="M506.2 186.2a13 13 0 0 1-2.8 1.9q-.4 0-.4-.5 1.5-1 3-1.6z"/><path fill="#e7331e" d="M351.6 389.8q-.7 1-2.4 2.2.8-1 2.4-2.2m4-2.9q-.7 1-2.4 2 .7-1 2.4-2"/><path fill="#efb606" d="m503.1 188.1-2.6 2q-.4.1-.4-.4 1.5-1.2 2.9-1.7z"/><path fill="#e7331e" d="M373.6 372.8a9 9 0 0 1-2.3 2.2 9 9 0 0 1 2.3-2.2m-10 8q-.7 1-2.3 2.2.6-1 2.2-2.2"/><path fill="#11375a" d="M716.3 675.8a9 9 0 0 1 .4-3.5q.2 1.5-.4 3.5m-20.4-79.1a9 9 0 0 1-1.9-2.4q.9.8 1.9 2.4"/><path fill="#efb606" d="M511.1 142q-.6 1-1.6 2-.5.1-.5-.3 1-1.2 2-1.7z"/><path fill="#f0dd0f" d="M416.5 375.9q-.1 1-1.3 2 .2-1 1.3-2"/><path fill="#11375a" d="M715.3 679.9q-.2-1 .4-2.7.2 1-.4 2.7m-1.2-46.3-1-2.3zm.9 3q-.6-.6-1-2.3.6.6 1 2.3"/><path fill="#efb606" d="M523.1 174.1q-.3.6-1 1.4-.6 0-.7-.6.7-.8 1.6-1z"/><path fill="#176890" d="M350 719.2q.7 0 1.8.6-.6 0-1.7-.6"/><path fill="#11375a" d="M695.9 664.3q.5.3 1 1.4-.4-.2-1-1.4"/><path fill="#d67905" d="M369.4 404q-.5 0-.5-.8.3-.7 1-1 .2.7-.5 1.8"/><path fill="#e1a207" d="M314.8 601.9a6 6 0 0 1 .7-2q.4-.2.4.4-.4 1-.9 1.7z"/><path fill="#f0dd0f" d="M407.3 386.8q-.4 0-.3-.6.1-.8.7-1.3.1.8-.4 2"/><path fill="#efb606" d="M512 141q0 .6-.7 1-.3 0-.2-.2.4-.7.9-.8m-2.8 3.2-.8.9q-.4 0-.3-.3.5-.7.9-.8z"/><path fill="#11375a" d="M697.9 600.7q-.3 0-.8-.6.3 0 .8.6m1 2.1q-.2 0-.8-.7.3 0 .9.7"/><path fill="#e1a207" d="M482 224.6q-.1.5-.6.4-.2-.6.1-1.4.4 0 .4 1"/><path fill="#d98404" d="M409.4 362.2q0-.4.6-1 0 .3-.6 1"/><path fill="#111e34" d="M412 334h-.2z"/><path fill="#11375a" d="M713 629.7q-.3 0-.3-.6.3.1.3.6"/><path fill="#111e34" d="M413 333q0 .5-.7 1h-.3q0-.5.7-1z"/><path fill="#f7f7f6" d="m710.6 310.4-.3-.2q0 .2.2.2zm0 0q-.3-.5-.5-1.6.5-.3.8.2.3.7-.2 1.2z"/><path fill="#040608" d="m570.7 466 1.5-5.7c-4.4 1.3-8.4 2.2-12.2 3.8a10.7 10.7 0 1 1-6.8-20.3q18-6 36.1-11.8l25.8-8.3c7-2.3 12.1-.2 14.3 5.6 2.1 5.5-.6 11.9-6.6 14.3-6.8 2.8-13.9 5-21.3 7.7a42 42 0 0 1 6.5 27 31 31 0 0 1-7.2 18.7c-7.8 8.9-20 8.4-25.8-2-3.1-5.7-4-12.7-5.2-19.2-.6-3 .4-6.3.9-9.8m-117 .1c-4.4-.5-8.2-1.1-12.5-1.8q.7 4 1.3 8.3a34 34 0 0 1-5.6 24c-6.8 9.7-18.6 10-25.6.7a38 38 0 0 1-4.8-37.1l1.9-5.1v-.7q-9.7-2.8-19.3-5.7-7.5-2.6-7.7-10.4c-.2-4.2 1.5-8.2 5.8-9.4 3-1 6.7-1.1 9.7-.3q28.7 8 57.2 16.6 9 2.9 9 10.6c-.2 5-3.4 8.8-9.5 10.3"/><path fill="#06080a" d="M449.2 620.6a28 28 0 0 1 14 15.9q2.3 7.2-2.7 12.3-5.4 5.7-13.2 3.8c-9.6-2.7-18.3-15.6-17.2-25.4.7-6.6 6.2-10.5 12.8-9q3 .8 6.3 2.4m119.5-.1c5.8-2.3 11.5-4.9 16.5.2s2.9 11.2.7 16.8a25 25 0 0 1-12.6 14.2 13 13 0 0 1-14.7-2.3c-4.3-4-4.8-8.8-3-14a27 27 0 0 1 13.1-14.9"/><path fill="#101011" d="m675 244 16.4-.6c1 0 2.9.5 3 1 .1 1.6.4 4-.5 5q-7.5 8.6-15.8 16.5-11 10.4-22.6 21c3.5 4 7 7.3 9.8 11 1.6 2.3 3.6 5.8 2.9 7.8-.9 2.3-4.4 4.9-7 5.1-10 .9-20.3 1-30.5 1.2q-16.4.1-32.8 0a23 23 0 0 1-5.3-.7q-5.2-1.5-2.7-6 4.4-7.6 9.2-14.7c3-4.2 2.6-6.9-1.3-10.2q-16.2-13.4-32-27.4c-1.5-1.3-1.8-4-2.6-6 1.9-.6 3.7-1.8 5.6-2q16.6-.4 32.8-1c5.1-.4 8.8 1.2 10.6 6q1.4-.7 1.4-1c2-10.4 2.7-11 13.7-11h1c11.6 0 13.2 1.4 15.4 13.4 2-1.2 4.4-1.7 5.3-3.2 1.8-2.9 4.2-3.2 7.2-3.3 6 0 12.2-.6 18.8-.9m-61.6 29.4-2.2.6-3.3.7c-1.6.5-4 .6-4.4 1.5-.5 1.4.5 3.3.7 4.1q2.6-1.9 4.8-2.6c0 .2.1.3-.2 1.3l.1 1.5-.2 1q1.7 3.6 4.3.5l.8.3 3.9-.2q-1-2.7-1.5-5.5.4-.6 0-2.1-.5-.3-1.1-1.3l-.6-.6c-.2.3-.3.7-1.1.8m17 36.5H645c3.2 0 6.3.3 9.4 0 2.3-.3 4.5-1.3 6.6-2l.8.3q.6-1 2.2-2.3l-2.5-4.7-1-.2q-.9-.5-.9-1l3.3-.3-4.1-2.5h-3.1v.5q1.6.1 2.7 1l-4.1.3-4.4.1h-31.4q-.6.7-2.2 1.6-.6.1-1.3-.4l-.6-.6q0 .6-1.3 1.3c-1 0-2-.3-2.8 0-.9.6-1.5 1.8-2.2 2.7q1.5.4 3.2 1.8l5.3 1.5s.4.2.3.5q.2.1-.7.5h-9.4v1.9h23.6m21.5-35-4.5-2.7-.8 1.5q2.5 1.2 5.4 3.2l.6.7-.1.3-2.4.2 6.3 4 1-1q-2.3-3-5.5-6.2m-51.7-10c-2 .6-4.1 1-6 2-1 .4-1.5 1.7-2.2 2.7 1 .5 2.4 1.6 2.9 1.3 2.2-1.3 4.2-3 7-4.7 1.6 2.5 3.4 4.2 6.7-.1q-2.3-1.5-4.8-4c-1.3-1.1-2.5-3.3-3.7-3.3-6.4-.1-12.7.4-19 .6v1.9c7.5 1 15.6-3 23 2.3-1 .4-2 .9-3.9 1.3m61.7-5 17 1v-1.4c-1.2-.4-2.5-1.2-3.7-1.1q-7.4.5-15.5 2l-2.6 2 18 2.3v-1c-4.7-1.3-9.4-2.5-13.2-3.7m-12-5.8 2.2 3.1q2.9-2.9 6.6-4.7.1 2 .8 3.6c.4.5 2 .7 2.7.3.8-.5 1-2.5 1.8-2.6q5.1-.5 10.3-.6l12.8-.5-.1-2q-14.6.8-28.7.5c2.4-.4 4.8-1.2 7.2-1.2q7.5-.2 15-.1a138 138 0 0 0-18.3-2c-5.6-.3-11.3-.4-14.8 6.4l-3 7.2c-1.2-2-2.3-3.8-3.5-6.4q-1-2.6-.7-5.5c-.6-1-1.8-2-1.8-3.2-.1-4.5-.6-5.4-4.5-5.5q-5.7-.1-11.5.1c-1.1 0-2.3.8-3.4 1.3l.2 1.3c6.4-1.3 12.4-1.2 16.2 5l-3.8-2.6 3 5.4-9 .9.6 6.6 6.4 1.9c2.4.7 4.9 1.3 8.3 2 9.4.2 9.4.2 9-8.7m-50.7-.8 3 1 3.6-4 .4.7-2.4 6.7c2.5.3 4.5 0 5 .7 1.2 1.6 1.6 3.7 2.2 5.6l5.2-1.6-8.8-13.8h-39.1v.8h33.3c-1.4 1.8-2.5 3.2-4.4 4.5l-21 2.4.4.8 22.3-1.5c0-.6-.2-1.2.3-2.3m53.7 13.3 6 .6 8.1 4.7q.5-2.5-.7-3.1-1.9-1-3.8-1.4l.1-.7 8.4 1.2c0-.6.2-1.4 0-1.4a25 25 0 0 0-18 0M574 254l19.8-1.3-.1-1.7-23.1 1.1c1.3 1 2 1.4 3.4 1.9m62 14.6-2-4.8-1.6.6v9.4c4.3.8 3.4-2.1 3.5-5.2m-45-3.3 6.5-1.8v-1.4l-13.8 1.1c2.8 2.5 3.8 5.7 7.3 2.1m53.7 7.6.4-.2v-.3c-4.3-.9-5.1-3.4-3.4-7.3h-3.8l.7 9zm24.3-17.9-3.5.3c16.3 2.3 16.3 2.3 17.3-.3zM630 266.7l-1.6-2.8-1 .5v9.4l1.4.2zm-5.8 2.4-1.5-4.2c-.8.5-2.3 1.2-2.2 1.5q1.1 4 2.7 8l1.8-.5zm14.2 14.8V281l-2.3 1.5c.7.7 1.4 1.5 2.3 1.4m14-1.6h-.9l.7.8q.2 0 .2-.8"/><path fill="#135576" d="M656.2 645.3q-1.2-7.7-1.9-15-.5-4 .2-7.9 2.7-11.5 6.2-23.2 8.6 14.3 11.2 31.4c.2 2.8 0 5.4.4 7.8 1.8 9.8 4.1 19.4 5.4 29.2.6 4.6-.5 9.5-1 14.2 0 .5-1.2.8-2.3 1.2-2.4-5.4-4-11-6.5-16.1-3.6-7.3-7.7-14.2-11.7-21.6"/><path fill="#06080a" d="M692.1 585.4q.4.2.9 1.4-.4-.3-.9-1.4"/><path fill="#e9c411" d="M301.4 699q-3-7-5.3-14.7c.2-1.1.6-1.9 1-3.3l25-59.7q4-10 8.2-20.4l.9-2.2q1-3 2-5.8.7-.3.8-1.1v-.7c3-9.9 6.3-19.7 8.9-29.7 1.1-4.5 1-9.2 1.8-14.1q2.1 2.9 3.2 6.2c2.2 7.1 3.8 14.4 6.4 21.4 1.8 4.8.8 9-1 13.3l-9.1 22.5q-.7 2.2-1 5.1 0 .5-.3.4a75 75 0 0 0-3.8 8.8h-.5q-1.6.8-2.2 1.5l-15.1 31c-.8 1.8-.7 3.8-1 5.7v.1c-2.4 4.1-5.6 8-7.2 12.4-2.9 8.2-5 16.6-7.4 25.3z"/><path fill="#f0dd0f" d="M339.4 624.2q1.2-3.8 3.5-8-1.3 3.8-3.5 8"/><path fill="#135576" d="M339.1 625.1q-.6 2.8-1.9 5.7-.4 0-.4-.3z"/><path fill="#d98404" d="M334 590.7q0 .7-.2 1.2l-.8 1.1q-.7 2.6-2.1 5.7-.8 1.5-.8 2.3l-8 20.3-25 59.4c-1-1-2.7-2.3-3-3.8a80 80 0 0 1 7.4-47.8q4.1-8.7 8.5-17.7l5-9c.3-.9.6-1.3 1-2 1.6-2.9 3.2-5.3 4.9-8.1q3.8-2.4 7.5-4.2l3.7-1.9z"/><path fill="#e9c411" d="M427.6 385.2q2.4-6.7 10.3-8.1a153 153 0 0 1-10.3 8m-10 7c-.4-3.4 2.3-3.6 5.2-4a37 37 0 0 1-5.3 4m27-19.7a33 33 0 0 1 4.4-4.3 33 33 0 0 1-4.5 4.3m-21 15.7q1.3-1.5 3.4-3-1.1 1.5-3.3 3m16-11.8a20 20 0 0 1 3.4-3.2q-1.2 1.4-3.5 3.2"/><path fill="#e1a207" d="M493.1 314.5q-.5.7-1.2 1.3-2 .1-3.7 0c-3.8.4-7.7 1.5-11.2.8-1.4-.3-2.8-4.6-2.8-7 .3-8.4 1.3-16.8 1.7-25.3.1-3 1-4 4.2-4.4 16.2-2.2 32.8-2.7 47.7-10.7l12.3-6.4 2.9 16.9v3c2.1 11.2 3.1 9.6-9.5 17a103 103 0 0 1-39.2 13.5q-.6.1-1.2 1.3"/><path fill="#06080a" d="M503.6 313.2a27 27 0 0 1-5.3 1.2q2.2-.7 5.3-1.2"/><path fill="#f1cf16" d="M478 253.9c.7-5.5 1-10.6 2.3-15.5.4-1.4 3.2-3 5-3.1a96 96 0 0 0 46.5-16q.2-.1 1.8-.1l3.4 20.1 1 7.9c1.2 8 0 10.2-7.1 13.4-16.4 7.4-33.9 10.3-51.4 13.3q-4 .5-3.5-3.3z"/><path fill="#e1a207" d="m511 189.4 8-6a62 62 0 0 1 6.2-4q3 14.6 6.5 29.3c-3.7 3-7.4 6.3-11.7 8q-18 6.7-36.2 12.8h-1.4l-.4-4c1.6-7 3.7-13.4 4.8-20 .7-4.1 3-5.2 6.5-6.6 6.1-2.5 11.8-6 17.7-9.5"/><path fill="#e09d06" d="M523 173.5q-.8.8-1.9 1.2-6 4.4-12 9-1.5 1-3 2t-3 2-3 2c-3.2 1.6-6.2 3-10 4.5.2-1.7.1-3.7.6-5.5q3.5-15.8 7.4-31.4c.3-1.2 1.6-3 2.4-3 7.3-.2 12.2-4.6 18-10z"/><path fill="#d2c12b" d="M656.7 685.5q2.8 12.2 4.9 24.1c.2 1.6-1 3.8-2.2 5.2-2.1 2.6-4.7 4.9-8 8.2 1.3-12.5.4-23.2-2-34-.8-3.4 1.3-7.5 2-11.3l1.8-.3z"/><path fill="#e09d06" d="m509 143.7-1 1c-2.3 1-4.6 1.6-8 2.5l8.1-46.8 2.2-.2q1.3 6 2.5 11.8c.9 5 1 10.3 2.3 15.2 1.4 5.1.8 9.4-3 13.4l-1 1.2q-1.1.7-2 1.9"/><path fill="#f0dd0f" d="M338.6 625q-.5 2.5-1.8 5.5L320.5 663q-.2-2.7.8-5.4 7.4-15.6 15-31 .7-.9 2.3-1.6"/><path fill="#d67905" d="M299 596h-.2z"/><path fill="#282626" d="M636.1 310q-2 0-4.7-.3l-1.8-1.6-4.5 1.8-2.1-.2q-3.5-1.2-6-1.9 0 0 .3-.6l6.8-6.7 1 .9-8.2-.8c.6-.5 1-1 2.2-1.2q8.4.6 16 .5 7.8-.2 15.7-.8 1.5 0 4.1.2 2.6.7 4 .7.8.4 2 1.5c.2 2.4-3 4.4.1 6.5h-.4q-6.7.5-12.3.5c2.3-4 2.2-5.3-.5-7.3l-2.9 7-1.7-4c.7 6.1-4.9 3.9-7 5.7"/><path fill="#e2e0df" d="m598 254 3.6-4.5h-33.3v-.8h39l8.9 13.8-5.2 1.6c-.6-1.9-1-4-2.1-5.6-.6-.7-2.6-.4-5-.7l2.3-6.7-.4-.7-3.5 4q-1.2-.4-3.5-.7-.6.4-.7.3"/><path fill="#f7f7f6" d="m640 262.8-7.4-1.9-6.4-1.9-.6-6.6 9-1-3-5.3c2 1.4 3 2 4.1 2.2q.4-.5 0 0 .5.8 1.3.7v.5q1.4.6 2.5.5.7 2.4 1.3 5.8z"/><path fill="#b9b5b3" d="m658.1 252-6 5.3a17 17 0 0 0-2.8-3.2l-1.3-.1c2.9-6.4 8.6-6.3 14.2-6q9.2.4 18.2 2h-14.9c-2.4.1-4.8.9-7.3 1.6z"/><path fill="#e2e0df" d="M639.8 249.8c-.4.2-.3.2-.6 0l-2.3-.8.2-.3q-.6-.6-1.2-.7h.1c-4.4-5.5-10.4-5.6-16.8-4.3l-.2-1.3q1.7-1 3.4-1.3 5.8-.3 11.5 0c3.9 0 4.4 1 4.5 5.4 0 1.1 1.2 2.2 1.4 3.3M658 252l29-1.2v2l-12.7.5q-5.2.1-10.3.6c-.7.1-1 2-1.8 2.6-.6.4-2.3.2-2.7-.3-.6-1-.6-2.4-1.1-4zm-10.3 2.2q.6-.3 1.3-.1c1.3 9 1.3 9-8.6 8.8q-.3-3.3.4-6.7 1.9 2.4 3.6 5.4c1.2-2.9 2.1-5 3.3-7.4m5.3 12q9.3-3 18 .4c.2 0 0 .8 0 1.4l-8.4-1.2-.1.7q1.9.5 3.8 1.4 1.2.7.7 3l-8.1-4.6c-2.8-.3-4.4-.5-5.9-1m-49-3.4c-7.3-4.7-15.4-.6-23-1.6v-1.9c6.4-.2 12.7-.7 19-.6 1.3 0 2.5 2.2 3.9 3.8z"/><path fill="#6b696a" d="m616.6 300.6 8.5.8-1-.9-6.8 6.5q-.5.2-.8-.3c-.3-3.8-.4-3.8-5.5-1.8l-2.9-1.2q1-1.6 2.2-2.6c.7-.4 1.9-.1 3.5-.1l1.3-.3z"/><path fill="#382d60" d="M636.6 310c1.7-2 7.3.3 6.6-5.7l1.7 4 2.9-7c2.7 2 2.8 3.2.1 7.3l-3.8 1.2z"/><path fill="#f7f7f6" d="M573.6 254c-1-.5-1.7-1-3-1.9l23-1 .2 1.6zm24 0h1l.3 1.7-22.3 1.5-.4-.8zm62.7 6q7.5-.9 15-1.6c1.1-.1 2.4.7 3.6 1v1.5l-17.6-1zm-24.4 9c0 2.7.8 5.6-3.5 4.8v-9.4l1.6-.6z"/><path fill="#e2e0df" d="M590.6 265.6c-3.2 3.3-4.2.1-7-2.4l13.7-1 .1 1.3z"/><path fill="#b9b5b3" d="m608.9 277.2-4.7 3.1c-.2-.8-1.2-2.7-.7-4 .4-1 2.8-1.1 4.4-1.6q1.5-.4 3.8-.6.5 0 .2.9 0 1 .2 1.7 0 .6-1 .2-1.4 0-2.2.3"/><path fill="#f7f7f6" d="M601.2 266.2q-3 2.6-6.3 4.7c-.5.3-1.9-.8-2.9-1.3.7-1 1.3-2.3 2.2-2.7q2.8-1.4 6.4-1.7.6.8.6 1"/><path fill="#e2e0df" d="M660 260.2q.5-.3.8-.2l14.3 3.6v1l-18-2.1zM644.1 273l-5.7 1.3-.7-9h3.8c-1.7 3.8-.9 6.3 3.4 7.2v.3q-.1.1-.8.2"/><path fill="#f7f7f6" d="M669.2 255h13.4c-1 2.6-1 2.6-17.3.3z"/><path fill="#6b696a" d="M650.3 299.1q-7.3.5-15.3.8-7.5 0-15.7-.6 15-.2 31-.2m-33.7 8.8q3.2.6 6 1.7-7.7.4-15.8.3V308z"/><path fill="#b9b5b3" d="M601.5 266.2q-.5-.2-.5-1 1.6-1 3-2v-.3l4.6 3.2c-3.3 4.3-5 2.6-7 .1"/><path fill="#f7f7f6" d="m630 267.1-1.2 7-1.5-.3v-9.4l1-.5zm-5.6 2.4.6 4.4-1.8.5q-1.6-4-2.7-8c0-.3 1.4-1 2.2-1.5z"/><path fill="#6b696a" d="m644.6 309.8 3-1 13-.8c-1.7.6-4 1.6-6.2 1.9-3 .3-6.2 0-9.8 0"/><path fill="#b9b5b3" d="m652.5 275.2 4.9 6-1 1-6.3-4.1 2.4-.2.1-.3q-.3-.3-.5-1.3.1-1 .4-1.1"/><path fill="#282626" d="M611.1 305.2c5-2.3 5-2.3 5.2 1.4a16 16 0 0 1-5.2-1.4m-2.2-24.6.4-.2c3-.3 4.5-1 3-4q1.8 0 2.5.8L613 282l-.3-.3z"/><path fill="#6b696a" d="M661.4 308.1c-3.5-2.2-.3-4.2-.2-6.6q.1-.4.5 0l1.7 4.5q-.8 1.1-2 2.1"/><path fill="#b9b5b3" d="M652 276q-3-.8-5.4-2.3l.8-1.5q2.2 1.4 4.8 2.8.2.5-.3 1m-38.5 6.2q.3-2.4 1.6-5 .9-.3 1-.2l1.7 5.1z"/><path fill="#f7f7f6" d="M612 276.5c1.8 2.9.3 3.6-2.7 3.8q-.6-.4 0-1.8l2.3-1.5q.3.3.5-.3z"/><path fill="#6b696a" d="M659.3 300a17 17 0 0 1-4-.6q1.4-.4 3.5-1l.5-.8 3.6 2.1z"/><path fill="#282626" d="M663.7 306q-1.1-2-1.9-4.5 1.1 1.9 1.9 4.4"/><path fill="#e2e0df" d="M638.3 284.3q-1.2-.5-2.2-1.8l2.2-1.5z"/><path fill="#6b696a" d="M625.5 310q1.5-1.1 4.1-1.6.5 1 .4 1.4z"/><path fill="#f7f7f6" d="M612 274.4s.1-.3 0-.4q.5-.4 1.8-.3.9.4 1 .3l.3-.2q.7.2.9 1-2.2 0-4-.4"/><path fill="#6b696a" d="M611.9 275q1.9-.3 4.3.1.4.7 0 1.7-.4.2-1 .1-1.3-.4-2.8-.6l-.4.2q-.1-.4-.1-1.5"/><path fill="#fefdfc" d="M608.8 281q1.8-.1 4 .8-2.4 3.5-4-.8"/><path fill="#6b696a" d="M659 298q-1.8 0-3.3-.3v-.5q1.4 0 3.4.2.2.4-.2.7"/><path fill="#b9b5b3" d="M652.6 282.5c0 .3-.4.6-.4.6l-.7-.7z"/><path fill="#6b696a" d="M615 273.5c.1.3-.3.5-.3.5s-.4 0-.5-.2q0-.7.3-1.2.3.2.6.9m-4 3.4q0 .7-1.5 1.3-.6-.2-.7-.8.8-.4 2.2-.5"/><path fill="#382d60" d="M630.2 309.9q-.2-.6-.2-1.5.4.3 1 1.3c0 .2-.6.2-.8.2"/><path fill="#282626" d="M615 300.5q-.1.4-.8.4 0-.6.2-1.2z"/><path fill="#d67905" d="M330.3 600.9q-.2-.8.4-1.9.2.8-.4 1.9m3-8q-.3-.3.5-.8.2.4-.6.8"/><path fill="#101011" d="M637 249.5q.8-.4 2.3.3-1 .4-2.3-.3m-1.3-1.1q.9-.4 1.4.3-.9.4-1.4-.3"/></svg>