<?xml version="1.0" encoding="UTF-8" standalone="no"?>
<!-- Created with Inkscape (http://www.inkscape.org/) -->

<svg
   version="1.1"
   id="svg1"
   width="743"
   height="1076"
   viewBox="0 0 743 1076"
   xmlns="http://www.w3.org/2000/svg"
   xmlns:svg="http://www.w3.org/2000/svg">
  <defs
     id="defs1" />
  <g
     id="g1">
    <path
       style="fill:#000000"
       d="m 235.07333,1065.5356 c -9.5355,-3.5476 -21.2706,-14.3254 -30.2044,-27.7405 -6.1771,-9.2756 -14.6819,-27.3394 -20.5252,-43.59466 l -4.9432,-13.75136 0.5986,12.36666 c 0.3292,6.8016 1.1969,16.06276 1.9282,20.58046 1.5186,9.3809 0.8884,14.6288 -2.3944,19.9405 -5.3139,8.598 -18.268,11.7238 -28.2362,6.8133 -7.3487,-3.62 -23.5557,-17.8135 -32.3234,-28.3075 -18.1082,-21.67356 -29.9383,-42.98367 -35.7474,-64.39342 -1.7766,-6.54789 -2.1785,-10.81346 -2.2141,-23.5 -0.051,-17.99296 1.6599,-25.82832 8.7888,-40.26237 l 4.1629,-8.42859 -8,-2.80078 C 51.81713,860.50274 25.31393,838.14812 9.65773,808.09588 1.0617301,791.59576 -0.21066989,783.11124 4.5201301,773.8381 c 4.2753,-8.38023 10.5064999,-12.26697 22.3618999,-13.94838 20.6518,-2.92895 35.0378,-17.86375 47.5518,-49.36576 7.3199,-18.42674 13.3187,-48.26994 15.0138,-74.69137 3.1242,-48.69716 4.6985,-64.46388 9.031899,-90.4561 4.993301,-29.95052 12.442701,-59.64695 20.813301,-82.9711 3.9634,-11.04368 3.9634,-11.04368 0.9376,-15 -7.707,-10.07711 -19.4647,-29.13666 -25.2656,-40.95631 -7.4625,-15.20523 -12.2513,-28.59647 -16.1341,-45.11682 -2.6135,-11.11971 -2.7953,-13.32875 -2.83,-34.38318 -0.03,-18.0604 0.3212,-24.17718 1.7791,-31 4.7211,-22.09492 14.8077,-44.82327 22.4936,-50.68549 5.1838,-3.95385 11.2332,-5.72315 16.6217,-4.86148 2.3587,0.37716 30.6183,14.27945 68.4871,33.69214 l 64.4715,33.05002 13.5549,-4.54563 c 7.4552,-2.5001 17.6049,-5.2893 22.5549,-6.19822 11.9991,-2.20327 21.4224,-4.51678 21.9635,-5.39221 0.2422,-0.39189 11.2738,-60.00812 24.5146,-132.48053 13.2408,-72.472395 24.7144,-133.300205 25.4969,-135.172905 5.0344,-12.04916 17.1394,-17.8619306 29.848,-14.3329587 5.1506,1.4302367 12.9599,9.1988357 15.0055,14.9272647 0.8838,2.475 12.4912,64.35 25.7942,137.499999 13.3031,73.15 24.2585,133.10338 24.3454,133.22973 0.087,0.12635 5.3047,1.5335 11.595,3.127 9.8148,2.48634 19.9843,5.98159 32.4571,11.15544 2.9207,1.21153 5.2432,0.11358 70.5,-33.32838 40.0511,-20.52485 69.1228,-34.8437 71.5218,-35.22703 5.4903,-0.87728 11.2702,0.85587 16.7125,5.01139 3.627,2.7694 5.5652,5.54152 9.6139,13.75028 10.3962,21.07856 15.1316,41.68521 15.1316,65.84656 0,44.49162 -16.169,86.15141 -50.0422,128.93501 l -6.7298,8.5 2.9591,9 c 14.2685,43.39744 22.4539,90.89713 26.2796,152.5 0.8027,12.925 2.1246,28.225 2.9377,34 6.5013,46.17645 21.9932,81.85721 41.3117,95.1487 5.5667,3.82994 11.1329,5.74135 20.0229,6.87572 11.9731,1.52777 19.0484,6.61509 22.7765,16.37686 3.5523,9.30155 -0.1989,22.82525 -11.1851,40.32423 -15.9757,25.44625 -38.8471,43.64425 -68.8304,54.76584 -5.5,2.0401 -10.1414,3.84301 -10.3142,4.00648 -0.1728,0.16346 1.2485,3.4002 3.1584,7.19276 6.9398,13.78059 8.1627,19.71631 8.0985,39.30941 -0.053,16.13603 -0.2711,18.20147 -2.8008,26.5 -10.3932,34.0945 -42.0109,76.28022 -67.0379,89.44522 -10.485,5.5154 -21.678,3.2961 -27.8499,-5.5221 -3.8882,-5.5554 -4.7919,-11.7685 -3.2358,-22.2482 0.7085,-4.7712 1.5698,-14.74996 1.914,-22.17492 l 0.6259,-13.5 -4.871,14 c -13.2951,38.21162 -26.2216,59.47802 -43.2076,71.08402 -6.262,4.2786 -7.7856,4.8724 -13.4228,5.2314 -11.1147,0.7077 -19.9079,-4.077 -24.1206,-13.1251 -2.8903,-6.2078 -2.9799,-9.4871 -0.8002,-29.3111 2.1906,-19.9226 2.2061,-54.82001 0.032,-70.88641 -1.8229,-13.46866 -4.4844,-24.66864 -7.5438,-31.74502 l -2.0545,-4.7522 -7.0595,4.56676 c -16.8239,10.88337 -39.3953,20.19263 -63.0097,25.98754 -15.263,3.7455 -35.8745,3.98994 -51.6884,0.613 -23.0501,-4.92219 -45.2115,-15.37067 -62.5429,-29.48722 -5.6721,-4.62003 -5.6721,-4.62003 -7.6959,-1.7779 -1.1131,1.56318 -3.3462,6.83816 -4.9626,11.72218 -4.9553,14.97295 -6.2961,25.35297 -6.8308,52.88005 -0.45,23.16842 -0.2948,26.30852 2.1175,42.86172 1.4317,9.824 2.6031,19.2218 2.6031,20.884 0,8.0364 -5.6431,17.001 -13.0951,20.8027 -5.2199,2.663 -14.3213,3.3885 -19.2951,1.5381 z m -4.2011,-121.58652 c 3.6359,-23.10898 8.3096,-37.29455 16.1953,-49.15642 2.488,-3.7424 4.904,-7.0395 5.369,-7.32689 0.465,-0.2874 -1.1908,-3.55872 -3.6795,-7.26962 -10.1536,-15.13959 -19.3443,-37.29298 -22.7126,-54.74707 -0.8491,-4.4 -2.2318,-14.975 -3.0726,-23.5 -3.1883,-32.32452 -10.9984,-70.79167 -19.1472,-94.30534 -4.3953,-12.68305 -10.1199,-25.03543 -15.9008,-34.31056 -5.1938,-8.33305 -9.5508,-18.27307 -12.0032,-27.3841 -1.0348,-3.84445 -2.8697,-7.72564 -4.4914,-9.5 -5.0552,-5.53124 -7.638,-12.46364 -12.87,-34.54294 -5.0979,-21.51375 -6.483,-33.41879 -6.5104,-55.95706 -0.027,-22.18149 0.8571,-29.95522 5.4222,-47.68087 5.4855,-21.29958 14.15,-39.99609 26.6866,-57.58571 7.0179,-9.8465 25.0209,-28.7256 35.3059,-37.02413 17.6806,-14.26566 44.2519,-29.34286 65.5901,-37.2175 l 10.0902,-3.72363 3.1192,-17.09144 c 1.7155,-9.4003 2.9714,-17.23922 2.7907,-17.41983 -0.6834,-0.68345 -16.4479,3.00498 -25.0022,5.84976 -32.7379,10.88729 -64.3775,35.23177 -87.5817,67.38798 -36.9834,51.25149 -58.6584,124.95572 -63.9642,217.50537 -2.9569,51.57859 -8.4984,80.60756 -21.1024,110.54415 -13.712,32.56811 -32.4812,52.35561 -57.7503,60.88366 l -6.3107,2.12977 4.9162,7.47121 c 9.9538,15.12713 21.3396,25.27424 37.8104,33.69689 7.7436,3.95988 27.1408,11.27432 29.8983,11.27432 0.8589,0 11.2089,-21.34149 16.7703,-34.58025 6.4173,-15.27597 11.6885,-30.34414 15.147,-43.29883 1.3772,-5.1585 2.6967,-9.57187 2.9324,-9.8075 0.5109,-0.51096 31.6862,5.3927 32.4359,6.14239 0.8244,0.82442 -4.6307,20.83662 -9.5526,35.04419 -9.8612,28.46513 -26.867,64.15264 -41.1687,86.3944 -11.3973,17.72493 -14.0364,25.07113 -14.056,39.1257 -0.024,17.45274 7.0519,34.44589 23.9176,57.43672 l 6.5705,8.95684 0.7408,-15.45684 c 1.8788,-39.20281 9.42,-62.74146 22.0614,-68.86106 10.3127,-4.9923 23.4408,-0.50392 28.6057,9.78003 1.0011,1.99332 3.4997,9.92421 5.5524,17.62421 9.8434,36.92418 14.9631,52.75217 22.1569,68.49992 l 3.8828,8.5 0.6283,-27.99992 c 0.407,-18.1397 1.2101,-31.69761 2.2804,-38.5 z m 288.6874,49.32956 c 4.9455,-12.33729 7.4825,-20.07138 15.4604,-47.13074 4.1027,-13.91566 8.1448,-26.94143 8.9824,-28.94618 4.0712,-9.74371 11.0674,-14.5815 21.1286,-14.6101 10.3271,-0.0294 17.0134,5.83386 22.3627,19.61003 5.0769,13.07488 7.0473,25.18394 7.68,47.19949 l 0.5734,19.952 3.4006,-3.952 c 10.6246,-12.34767 23.4077,-35.36993 26.903,-48.45206 2.211,-8.27544 2.3047,-22.72869 0.1917,-29.57336 -2.7272,-8.83421 -13.456,-27.42664 -15.8267,-27.42664 -1.2081,0 -13.6786,-21.22588 -21.4442,-36.5 -8.3931,-16.50825 -16.0074,-35.46711 -20.9077,-52.05769 -4.5082,-15.26318 -8.2646,-34.18279 -7.0284,-35.39956 0.9391,-0.92441 30.0818,-3.99051 31.9281,-3.35917 0.55,0.18808 1.8413,4.72371 2.8695,10.07919 2.4093,12.54847 9.4734,34.48248 15.8371,49.17392 6.2062,14.32804 15.5935,32.04937 17.3301,32.71575 1.8246,0.70018 15.2384,-3.20264 24.6509,-7.1723 17.9704,-7.57898 34.2726,-20.84804 44.5024,-36.22254 3.0547,-4.59086 5.3866,-8.47889 5.182,-8.64006 -0.2046,-0.16117 -3.6194,-1.31764 -7.5885,-2.56993 -10.2292,-3.2274 -18.4773,-8.3534 -27.9189,-17.35087 -12.281,-11.70331 -20.7892,-24.80679 -28.6974,-44.19674 -11.7162,-28.72663 -17.9895,-61.41218 -20.1525,-105 -0.3275,-6.6 -1.2693,-18.975 -2.0928,-27.5 -12.5863,-130.29222 -57.5217,-217.56078 -130.9219,-254.26234 -9.5958,-4.79811 -23.7757,-10.18238 -25.265,-9.59343 -0.7072,0.27966 6.4615,43.4452 7.9635,47.9511 0.1993,0.59808 4.2898,2.60578 9.09,4.46156 11.8152,4.56783 30.9322,14.41483 41.5128,21.38286 46.436,30.58126 72.9553,71.60805 79.8222,123.48931 1.9111,14.43891 1.3892,40.27882 -1.1426,56.57094 -1.9996,12.86772 -8.5875,39.05246 -11.5688,45.98278 -2.5444,5.91461 -8.7413,11.70696 -13.4746,12.59492 -2.9633,0.55593 -3.4626,1.22582 -5.9048,7.92188 -1.4673,4.02303 -5.4081,11.74391 -8.7572,17.15751 -3.3492,5.4136 -7.6342,13.16343 -9.5223,17.22185 -13.1159,28.1925 -24.2788,77.23582 -27.3185,120.02162 -2.1494,30.253 -5.5504,44.79291 -14.5557,62.22898 -2.5057,4.8514 -6.766,11.77749 -9.4674,15.39131 -2.7014,3.61381 -4.9116,6.98438 -4.9116,7.49013 0,0.50576 1.3252,3.00908 2.9448,5.56293 1.6196,2.55386 4.3582,8.53198 6.0857,13.28473 7.0838,19.48843 9.9492,41.12594 10.0161,75.63523 0.047,24.00605 0.047,24.00605 2.4787,19.33555 1.3377,-2.5687 3.8446,-8.19366 5.5708,-12.49986 z m -127.8891,-81.73847 c 33.473,-8.58392 60.9618,-24.66702 76.3578,-44.67521 8.3322,-10.82833 15.3324,-26.18363 16.9252,-37.12632 0.6244,-4.28956 0.6244,-4.28956 -8.1828,-10.12912 -11.045,-7.32335 -33.9788,-18.57814 -45.8072,-22.47998 -42.4817,-14.01344 -85.6826,-10.90077 -128.0207,9.22403 -11.0596,5.257 -26.314,15.07048 -31.5368,18.29722 -8.8828,5.48792 -9.6277,4.74452 -7.4235,10.94501 17.3062,45.97835 61.2394,78.77207 106.188,79.26354 6.2873,0.0688 11.3163,-0.70761 21.5,-3.31917 z M 332.38663,861.026 c -2.3933,-2.3933 -2.9231,-3.76653 -2.9231,-7.57692 0,-9.64207 10.0033,-14.0429 17.2342,-7.58203 2.8039,2.50521 3.2658,3.57773 3.2658,7.58203 0,4.0043 -0.4619,5.07682 -3.2658,7.58203 -4.5605,4.07484 -10.2332,4.07282 -14.3111,-0.005 z m 68.8427,0.005 c -2.8038,-2.5051 -3.2658,-3.57762 -3.2658,-7.58192 0,-4.0043 0.462,-5.07682 3.2658,-7.58203 7.231,-6.46087 17.2342,-2.06004 17.2342,7.58203 0,9.64207 -10.0032,14.0429 -17.2342,7.58203 z m -115.2658,-84.15162 c 16.4511,-8.05997 35.8699,-14.74982 54,-18.60321 12.2578,-2.60527 14.456,-2.76303 38.5,-2.76303 24.0619,0 26.2332,0.15612 38.5,2.76835 19.7096,4.19714 35.9853,10.00473 55.1012,19.66146 l 17.1012,8.63896 1.2296,-9.56641 c 6.3672,-49.53679 21.0589,-97.45587 37.9545,-123.79464 2.8682,-4.47133 6.0535,-10.52415 7.0784,-13.45073 2.0442,-5.83713 5.0351,-19.45981 5.0351,-22.93322 0,-2.97648 -11.5203,-24.84922 -19.6343,-37.27814 -16.1536,-24.7439 -37.5746,-46.55104 -65.8657,-67.053 -4.4,-3.1886 -10.6308,-8.33077 -13.8463,-11.42707 -5.3936,-5.19372 -5.9356,-5.48446 -7,-3.75489 -9.7179,15.79123 -27.6218,35.7153 -41.3578,46.02434 -19.7431,14.81743 -41.4583,24.9069 -65.7959,30.57055 -19.2891,4.48881 -29.1563,5.4762 -55,5.50374 -24.3066,0.0259 -25.1236,-0.0383 -29.4568,-2.31513 -2.4513,-1.28798 -5.002,-3.08727 -5.6683,-3.99843 -1.4489,-1.98147 -1.0018,-2.44771 -6.6285,6.91312 -5.9655,9.92439 -14.6401,27.27937 -19.6405,39.29421 -3.9779,9.55793 -3.9932,9.64491 -2.6149,14.87351 2.3723,8.99905 4.3963,13.86475 8.4129,20.22452 17.1557,27.16415 30.7298,71.05613 37.5862,121.53484 2.7655,20.36052 1.4167,18.67721 10.2969,12.85036 4.2422,-2.78353 14.013,-8.14756 21.713,-11.92006 z m 35.9442,-97.81643 c -8.6237,-3.917 -14.5306,-14.91836 -13.0343,-24.27584 3.4337,-21.47304 31.2025,-27.23205 42.4057,-8.79459 3.1093,5.11693 3.2958,5.9339 2.9963,13.12575 -0.2751,6.60611 -0.7356,8.2695 -3.3218,12 -6.0396,8.71168 -19.3449,12.35099 -29.0459,7.94468 z m 83.4371,-0.90724 c -3.3355,-1.74247 -6.4808,-4.40635 -8.3605,-7.08081 -2.605,-3.70647 -3.0566,-5.32668 -3.3326,-11.95663 -0.2995,-7.19185 -0.113,-8.00882 2.9962,-13.12575 9.1927,-15.12856 31.915,-14.53 39.8633,1.05009 4.5024,8.82544 3.4202,18.66326 -2.8601,26.00044 -7.1071,8.30303 -18.3218,10.32863 -28.3063,5.11266 z m 160.1788,-106.20159 c 1.6142,-14.02444 0.667,-38.77216 -1.9139,-50.00504 -4.3723,-19.02911 -12.0401,-36.02962 -22.592,-50.0893 -16.6771,-22.22089 -45.8296,-43.98271 -73.5654,-54.91512 -4.9095,-1.93514 -4.9095,-1.93514 -5.5499,1.78464 -1.8319,10.64029 -3.9313,19.75282 -6.9502,30.16708 -3.3489,11.5527 -3.3489,11.5527 -1.0595,15.0527 4.7538,7.2677 12.0427,14.15069 26.8208,25.32727 23.7321,17.94846 39.1964,32.71749 54.943,52.47286 7.2633,9.11232 18.216,25.50495 23.5142,35.19302 2.0805,3.80431 4.0892,6.59966 4.4638,6.21189 0.3746,-0.38777 1.2247,-5.42777 1.8891,-11.2 z m -371.0601,2.25061 c 5.6027,-10.85754 20.4847,-33.33464 28.8444,-43.56521 15.3075,-18.73324 31.7971,-34.09583 56.1556,-52.31749 18.9908,-14.20625 27.5456,-23.55527 34.878,-38.11605 8.8866,-17.64714 7.8538,-32.33894 -2.9219,-41.56251 -2.3738,-2.03191 -4.702,-3.69439 -5.1738,-3.69439 -2.1908,0 -19.9421,7.51548 -30.5309,12.92607 -42.1633,21.54442 -70.794,52.8138 -83.1541,90.81792 -4.9849,15.32717 -6.5973,26.75435 -6.5973,46.75601 0,16.54008 1.8906,37.51653 3.3787,37.48815 0.3417,-0.007 2.6463,-3.93615 5.1213,-8.7325 z m 109.5,-30.39691 c 47.0382,-6.84219 83.5315,-31.65038 104.9698,-71.35874 10.0575,-18.62859 17.5559,-42.95992 20.4716,-66.42765 1.196,-9.62619 0.7528,-10.61535 -6.4414,-14.37627 -9.7729,-5.10903 -23.8261,-0.64962 -37.3181,11.84189 -12.7504,11.80489 -16.6081,18.02255 -30.1873,48.65483 -13.7762,31.07649 -31.5445,57.27244 -54.9582,81.02516 -14.1126,14.31704 -14.4606,13.24804 3.4636,10.64078 z m 312.8951,-129.10874 c 9.6743,-14.53168 17.5328,-30.33321 22.53,-45.30216 5.4278,-16.25869 7.2403,-27.14855 7.2315,-43.44784 -0.01,-15.33039 -1.578,-24.97351 -6.3073,-38.74978 l -3.1755,-9.24978 -12.0869,6.35419 c -6.6478,3.4948 -29.5115,15.25765 -50.8083,26.13967 -27.9093,14.26082 -38.5196,20.14603 -37.9988,21.07668 0.3974,0.71016 5.9795,6.28278 12.4046,12.38361 l 11.682,11.09243 14.3168,-9.36729 c 7.8743,-5.15201 18.5286,-12.13759 23.6763,-15.52351 8.3138,-5.46849 9.9168,-6.15622 14.3488,-6.15622 10.2502,0 17.2203,6.64361 17.2203,16.41371 0,8.91671 -1.5471,10.51122 -25.6969,26.48379 -21.7684,14.3975 -21.7684,14.3975 -20.0451,17 6.6203,9.99782 14.1175,22.51122 18.8916,31.53127 3.0773,5.81418 5.7598,10.57123 5.9612,10.57123 0.2014,0 3.7365,-5.0625 7.8557,-11.25 z m -470.3951,-10.9563 c 3.575,-6.13088 9.0879,-14.77903 12.2508,-19.21809 3.1629,-4.43906 5.6379,-8.37305 5.5,-8.74221 -0.1379,-0.36915 -7.9008,-5.77018 -17.2508,-12.00229 -14.7799,-9.85135 -17.2938,-11.9138 -19.25,-15.793 -2.7215,-5.39702 -2.8112,-9.20563 -0.3445,-14.63704 2.8875,-6.35808 7.2323,-8.90107 15.2081,-8.90107 6.6136,0 6.6136,0 25.7775,12.77116 l 19.1638,12.77116 8.2226,-7.28167 c 4.5224,-4.00492 10.6062,-9.0183 13.5195,-11.14083 2.9134,-2.12254 5.0816,-4.07457 4.8183,-4.33785 -0.2633,-0.26329 -21.7719,-11.38845 -47.797,-24.72259 -34.2098,-17.52764 -47.5263,-23.8961 -48.0694,-22.98848 -1.6651,2.78326 -6.5864,19.39261 -7.8307,26.4291 -1.8858,10.66369 -1.6215,31.48692 0.5457,43 2.4857,13.20454 7.5919,28.34249 13.969,41.41275 5.1511,10.55752 13.4919,24.62087 14.5647,24.55764 0.2763,-0.0163 3.4274,-5.0458 7.0024,-11.17669 z m 223.6627,-31.84481 c 13.9548,-10.69576 28.569,-16.11212 43.3373,-16.06176 5.225,0.0178 10.9625,0.46909 12.75,1.00283 2.9769,0.88888 3.2449,0.78722 3.1893,-1.20977 -0.089,-3.18862 -3.3613,-19.43551 -4.0544,-20.12867 -0.3254,-0.32541 -5.2101,0.52663 -10.8549,1.89344 -22.317,5.4038 -45.5427,5.44331 -69.1192,0.11759 -5.7259,-1.29343 -10.4911,-2.28133 -10.5892,-2.19532 -0.098,0.086 -1.5424,7.51957 -3.2093,16.51903 l -3.0308,16.36264 4.7092,4.33584 c 4.7093,4.33585 4.7093,4.33585 17.4956,4.37555 12.7862,0.0397 12.7862,0.0397 19.3764,-5.0114 z m 23.106,-64.97911 c 6.6723,-0.83664 24.8965,-5.30159 25.9535,-6.35867 0.3261,-0.32604 -10.4686,-59.69089 -10.9396,-60.16186 -0.1856,-0.1856 -3.7001,0.57066 -7.81,1.68058 -10.1685,2.7461 -29.7856,3.50509 -40.4726,1.5659 -4.4,-0.7984 -8.0917,-1.37735 -8.2038,-1.28655 -0.1121,0.0908 -2.5574,13.093 -5.4341,28.89378 -3.4191,18.77977 -4.8907,29.06841 -4.2495,29.70962 0.5395,0.5395 4.6392,1.90602 9.1104,3.0367 15.0238,3.79919 27.9033,4.6938 42.0457,2.9205 z m -2.5455,-97.4397 c 3.1039,-0.80846 6.9613,-2.04596 8.572,-2.75 2.9285,-1.28008 2.9285,-1.28008 -7.8527,-60.11611 -5.9297,-32.35982 -10.9382,-58.993004 -11.13,-59.184858 -0.1919,-0.191854 -5.3303,26.959358 -11.4188,60.336028 l -11.0699,60.68486 4.5881,1.154 c 6.6085,1.66217 21.7078,1.59608 28.3113,-0.12392 z"
       id="path33" />
    <path
       style="fill:#ffffff;fill-opacity:1;stroke-width:0.788442"
       d="m 256.39083,789.89611 c -0.243,-1.19252 -1.3473,-8.5546 -2.454,-16.36018 -7.1297,-50.28661 -19.4468,-89.56538 -37.8009,-120.54564 -4.1168,-6.94888 -8.312,-18.51432 -8.312,-22.91469 0,-4.89394 9.8058,-26.81825 20.0277,-44.77911 3.2704,-5.74642 6.2726,-10.93894 6.6715,-11.53892 0.5898,-0.88712 1.2278,-0.70759 3.4156,0.96116 5.6566,4.31444 7.7006,4.72935 25.0771,5.09039 17.9002,0.37191 39.1853,-0.75207 50.0651,-2.64375 37.0422,-6.44053 68.313,-21.46494 91.689,-44.05308 10.9815,-10.61136 20.2132,-21.30109 25.9283,-30.02345 2.0916,-3.19216 4.1811,-5.82599 4.6434,-5.85295 0.4624,-0.027 3.3871,2.24445 6.4994,5.04758 3.1123,2.80313 9.9925,8.36916 15.2893,12.36895 23.6687,17.87302 40.5356,34.21639 54.8011,53.10005 12.5867,16.66151 27.836,44.18496 27.8196,50.21153 -0.013,4.81608 -3.9084,19.87811 -6.6143,25.57591 -1.4728,3.1013 -3.9584,7.64053 -5.5235,10.08718 -12.1527,18.99781 -24.8098,54.68453 -31.9539,90.09389 -3.0203,14.9705 -6.3615,36.03293 -6.3615,40.10257 0,1.06328 -0.1502,1.93324 -0.3338,1.93324 -0.1837,0 -7.0135,-3.29119 -15.1776,-7.31375 -23.2361,-11.44885 -37.4145,-16.46423 -60.1791,-21.28731 -7.6606,-1.62304 -10.3092,-1.75195 -35.4799,-1.72679 -25.2412,0.0252 -27.7978,0.15587 -35.4799,1.81311 -27.557,5.94477 -55.9735,17.10679 -76.8046,30.16891 -4.0816,2.55935 -7.7786,4.65336 -8.2157,4.65336 -0.437,0 -0.9934,-0.97569 -1.2364,-2.16821 z m 170.4026,-111.05236 c 8.09,-3.90476 13.3166,-13.0355 12.6194,-22.04555 -1.0199,-13.17983 -10.21,-21.92163 -23.0459,-21.92163 -12.79,0 -23.1955,9.73051 -23.2418,21.73397 -0.029,7.48671 1.3191,11.96147 4.7911,15.90593 7.7104,8.75945 18.8028,11.18991 28.8772,6.32728 z m -83.4688,-0.71764 c 4.969,-2.71292 9.264,-7.42785 10.3598,-11.3726 0.4296,-1.54609 0.7829,-5.86055 0.7854,-9.5877 0,-6.56678 -0.093,-6.92727 -3.1393,-11.64048 -12.7075,-19.66105 -43.0413,-10.79694 -42.8572,12.5237 0.05,6.35353 2.0106,11.09073 6.7056,16.20357 5.0977,5.55145 8.2402,6.75429 16.8246,6.44007 6.0695,-0.22217 7.7072,-0.59345 11.3211,-2.56656 z"
       id="path34" />
    <path
       style="fill:#ffffff;fill-opacity:1;stroke-width:0.788442"
       d="m 354.86843,913.01547 c -9.4367,-1.66952 -20.8104,-5.53965 -30.2286,-10.28585 -26.2591,-13.23301 -48.6684,-37.88603 -59.3134,-65.25212 -2.3422,-6.02143 -2.3752,-6.27707 -0.9876,-7.64334 2.961,-2.9155 34.1255,-21.00058 43.0107,-24.95959 40.8891,-18.21898 81.9493,-20.78623 121.9464,-7.62456 17.0597,5.61379 49.7714,22.5708 54.3866,28.19279 3.0088,3.66518 -3.7803,23.03595 -12.757,36.39868 -15.8509,23.59552 -46.4364,41.81026 -84.8324,50.52064 -9.7182,2.20462 -21.1092,2.44296 -31.2247,0.65335 z m -8.5944,-51.18041 c 3.4076,-2.59911 4.5095,-5.25566 4.0237,-9.7011 -0.7794,-7.13205 -9.1932,-11.79745 -15.5109,-8.60066 -5.3293,2.69664 -7.4585,12.03452 -3.7649,16.51143 4.1295,5.00521 10.1159,5.70791 15.2521,1.79033 z m 69.0108,-0.0899 c 7.0204,-6.72598 2.8295,-19.2205 -6.4469,-19.2205 -3.2241,0 -7.4815,2.04793 -9.444,4.54277 -1.1328,1.44016 -1.5554,3.19182 -1.5554,6.44708 0,4.00905 0.264,4.72488 2.5624,6.94626 1.4094,1.36213 3.4495,2.84659 4.5336,3.29881 3.1953,1.33287 7.7898,0.43867 10.3503,-2.01442 z"
       id="path35" />
    <path
       style="fill:#ffffff;fill-opacity:1;stroke-width:0.788442"
       d="m 603.98863,416.17442 c -2.5386,-4.66167 -7.4294,-13.08814 -10.8684,-18.72551 -3.439,-5.63736 -6.9837,-11.45481 -7.8771,-12.92767 l -1.6242,-2.67791 2.3142,-1.85262 c 1.2728,-1.01894 9.5417,-6.70902 18.3753,-12.64461 19.1072,-12.83875 24.1551,-17.17147 25.4051,-21.80537 1.2017,-4.455 0.3929,-10.23374 -2.0051,-14.32553 -3.671,-6.26415 -14.0304,-9.40893 -21.1551,-6.422 -1.3954,0.585 -8.9235,5.25221 -16.7291,10.37158 -7.8056,5.11936 -17.6555,11.55645 -21.8887,14.30464 l -7.6967,4.99671 -11.8496,-11.56437 -11.8496,-11.56437 3.7272,-2.31988 c 7.9668,-4.95865 95.8949,-50.19018 96.6547,-49.72061 0.7907,0.48865 5.8465,16.70623 7.3382,23.53893 1.7284,7.91637 2.3605,28.19612 1.192,38.23945 -2.6689,22.93781 -13.2451,49.51562 -29.4139,73.91648 -3.52,5.31213 -6.6325,9.65842 -6.9167,9.65842 -0.2843,0 -2.5939,-3.81409 -5.1325,-8.47576 z"
       id="path36" />
    <path
       style="fill:#ffffff;fill-opacity:1;stroke-width:0.788442"
       d="m 134.62263,407.10733 c -11.8508,-19.64336 -20.1728,-40.69871 -23.2942,-58.93606 -3.6484,-21.31645 -2.1638,-40.64369 4.739,-61.69562 1.6154,-4.92675 2.3101,-6.11043 3.5862,-6.11043 1.3321,0 66.2524,32.42298 87.2356,43.56785 l 6.5556,3.48188 -11.1749,9.3926 c -6.1461,5.16594 -12.0006,10.06589 -13.0099,10.88879 l -1.8351,1.49619 -16.9076,-11.08567 c -9.2992,-6.09712 -18.1031,-11.7053 -19.5642,-12.46263 -2.8222,-1.46279 -9.259,-1.84952 -14.2629,-0.85693 -9.0204,1.78929 -14.0881,14.24443 -9.4304,23.17736 2.0886,4.00584 5.2943,6.60826 22.4839,18.25292 7.2202,4.89118 13.2912,9.15764 13.4911,9.48102 0.1998,0.32338 -2.9021,5.57722 -6.8933,11.6752 -3.9911,6.09797 -9.3114,14.49619 -11.8229,18.6627 -2.5114,4.16652 -4.8825,7.57548 -5.269,7.57548 -0.3866,0 -2.4687,-2.92709 -4.627,-6.50465 z"
       id="path37" />
    <path
       style="fill:#b4c3ff;fill-opacity:1;stroke-width:0.788442"
       d="m 362.16153,209.26737 c -2.0598,-0.45155 -3.7451,-1.11468 -3.7451,-1.47363 0,-0.97392 17.0002,-93.57558 19.5682,-106.5899 l 2.2194,-11.247448 0.9554,4.28339 c 1.2915,5.790478 13.797,73.557228 16.7095,90.547978 1.2842,7.492 2.3349,15.37202 2.3349,17.51116 v 3.88936 l -5.322,1.73063 c -4.3277,1.40732 -7.5314,1.77163 -17.1486,1.95005 -6.5046,0.12068 -13.5119,-0.15003 -15.5717,-0.60159 z"
       id="path38" />
    <path
       style="fill:#b4c3ff;fill-opacity:1;stroke-width:0.788442"
       d="m 364.34633,306.34166 c -4.9865,-0.77713 -16.9386,-3.63639 -19.9248,-4.76652 -1.4081,-0.5329 -1.7738,-1.2853 -1.7731,-3.64756 0,-3.62579 7.0567,-44.81234 9.1632,-53.48912 0.3884,-1.59967 0.5211,-1.60913 7.2453,-0.51652 8.7049,1.41445 31.1615,0.84932 39.1758,-0.98588 10.283,-2.35471 9.5982,-2.33734 10.1204,-0.25668 0.894,3.56213 9.2194,49.82488 9.6957,53.87757 l 0.4757,4.04764 -4.72,1.32437 c -13.3255,3.73896 -18.7978,4.57725 -31.7349,4.86152 -7.1551,0.15722 -15.1306,-0.0447 -17.7233,-0.44882 z"
       id="path39" />
    <path
       style="fill:#b4c3ff;fill-opacity:1;stroke-width:0.788442"
       d="m 338.31113,375.44831 c -1.3009,-0.57483 -3.9405,-2.45274 -5.8657,-4.17312 l -3.5003,-3.12797 2.9993,-16.09841 c 1.6496,-8.85412 3.0474,-16.14936 3.1061,-16.21165 0.059,-0.0623 4.8966,0.87191 10.7508,2.07599 27.9683,5.75249 44.3589,5.33715 77.758,-1.97037 1.5439,-0.33778 1.801,0.25888 3.3213,7.70517 0.9064,4.43922 1.75,9.1357 1.8747,10.43663 l 0.2267,2.36533 -4.7307,-0.39422 c -20.8434,-1.73695 -35.9865,2.29324 -52.0762,13.85953 -3.4477,2.47844 -7.4102,4.98634 -8.8056,5.57311 -3.4274,1.44119 -21.7726,1.41189 -25.0584,-0.04 z"
       id="path40" />
    <path
       style="fill:#f09cff;fill-opacity:1;stroke-width:0.788442"
       d="m 223.30403,999.03044 c -5.1248,-11.58457 -10.9747,-29.39455 -18.1386,-55.22373 -7.2536,-26.15199 -8.5589,-29.71295 -12.2415,-33.39558 -4.1863,-4.18634 -8.2218,-5.87676 -14.9122,-6.24658 -7.554,-0.41757 -11.4805,1.08278 -16.29,6.22451 -9.5458,10.20523 -14.5728,30.91418 -16.63,68.50785 l -0.5378,9.82723 -1.9193,-2.33703 c -1.0557,-1.28539 -5.15,-7.12685 -9.0985,-12.98104 -14.1433,-20.9691 -19.7473,-37.33817 -18.4703,-53.95093 0.894,-11.63051 2.8465,-16.26717 16.0938,-38.21778 19.5632,-32.41615 38.472,-76.17838 46.2566,-107.05587 2.3923,-9.48906 2.4789,-11.04869 0.644,-11.59124 -1.3026,-0.38514 -22.5488,-4.49615 -28.6475,-5.54311 l -2.8259,-0.48513 -3.7989,12.82339 c -6.4971,21.93182 -13.6882,40.31886 -24.5184,62.69238 -4.6578,9.62223 -6.1387,12.02374 -7.4144,12.02374 -2.3286,0 -18.2035,-5.93999 -26.4225,-9.88665 -10.6791,-5.12801 -18.9287,-10.92506 -26.8231,-18.8489 -6.2543,-6.27765 -16.9354,-20.3459 -16.9354,-22.30598 0,-0.38923 2.0142,-1.34261 4.476,-2.11862 6.3723,-2.0087 18.0096,-8.13551 23.5312,-12.38869 26.7093,-20.57378 45.4182,-62.12484 52.3148,-116.18713 1.6456,-12.90024 2.3664,-21.11326 4.463,-50.85453 5.975,-84.75748 24.8283,-151.06931 56.9378,-200.26436 8.3855,-12.84762 14.9378,-21.02842 25.8104,-32.2253 24.7173,-25.45464 50.4618,-40.70704 81.4334,-48.24539 5.7546,-1.40064 10.6022,-2.40597 10.7725,-2.23408 0.4357,0.43973 -4.9271,31.62305 -5.6564,32.89056 -0.3292,0.57218 -5.7431,3.09077 -12.0309,5.59687 -22.7644,9.07305 -46.3803,22.53084 -62.6812,35.71965 -7.2157,5.8381 -24.1157,22.7753 -30.9712,31.03942 -14.5855,17.58226 -25.8428,40.61583 -32.3337,66.15803 -4.2515,16.72993 -4.5035,19.3532 -4.4696,46.5181 0.036,28.77027 0.651,33.97511 7.1144,60.19499 4.0346,16.36732 6.5534,23.27991 10.2447,28.11577 3.5613,4.66556 4.0953,5.80029 7.1166,15.12181 1.4692,4.53283 4.3972,11.49877 6.5068,15.47986 12.0514,22.74352 14.5018,27.68509 17.3344,34.95851 9.9671,25.59235 16.9719,59.01505 23.0253,109.86304 3.1284,26.27849 9.7904,45.68219 23.2874,67.82696 l 5.2272,8.57645 -4.5308,6.80932 c -12.9619,19.48058 -19.0018,47.25998 -19.3611,89.04847 -0.048,5.64477 -0.3146,13.63384 -0.5913,17.7534 l -0.5031,7.4902 z"
       id="path41" />
    <path
       style="fill:#f09cff;fill-opacity:1;stroke-width:0.788442"
       d="m 291.16283,544.78308 c -0.2846,-0.28458 3.821,-5.11221 9.1235,-10.72806 14.4048,-15.25606 23.4122,-26.36812 32.9598,-40.66096 8.3489,-12.49827 13.3794,-22.01658 30.1575,-57.06101 6.8773,-14.36473 10.6623,-20.25535 17.8235,-27.73904 11.3774,-11.88975 23.3054,-18.63627 32.9467,-18.63468 4.4165,7.3e-4 13.0273,3.71596 14.3528,6.1927 1.3049,2.4383 1.0276,7.41774 -1.0834,19.45264 -12.6771,72.2713 -55.8014,117.01675 -123.0351,127.66035 -4.3365,0.68649 -8.9742,1.42531 -10.3062,1.64183 -1.3319,0.21651 -2.6545,0.16082 -2.9391,-0.12377 z"
       id="path42" />
    <path
       style="fill:#f09cff;fill-opacity:1;stroke-width:0.788442"
       d="m 512.18643,995.48244 c -0.066,-15.38885 -1.3086,-41.34451 -2.4097,-50.31662 -2.1606,-17.60671 -6.8837,-34.13133 -13.1547,-46.02511 -4.183,-7.9334 -4.3503,-6.823 2.5195,-16.72031 2.3776,-3.42546 6.0481,-9.63445 8.1566,-13.79774 9.0006,-17.77204 11.4627,-28.09988 14.3247,-60.08911 3.5454,-39.62696 9.7199,-71.7526 19.3047,-100.44108 5.1981,-15.55879 8.4842,-22.59181 18.8098,-40.25775 2.0437,-3.49661 5.2317,-9.85921 7.0845,-14.13913 3.2365,-7.47653 3.4977,-7.8247 6.6615,-8.87929 4.8743,-1.6248 10.5891,-7.15807 13.0452,-12.63088 2.3903,-5.32633 8.3723,-28.02438 10.7474,-40.77968 3.0916,-16.60353 4.2193,-45.30218 2.3708,-60.33652 -4.0795,-33.18088 -17.0916,-63.68073 -37.6792,-88.31912 -20.263,-24.24983 -47.3784,-43.1893 -83.7079,-58.468 -4.1196,-1.73254 -7.9093,-3.49343 -8.4215,-3.91309 -1.1777,-0.96499 -2.0248,-4.94877 -5.3277,-25.05746 -4.1485,-25.2561 -4.0059,-23.03572 -1.4405,-22.43316 3.1302,0.73524 18.1847,6.9076 23.9669,9.82643 27.3832,13.82302 53.4627,37.92338 72.7065,67.18905 25.66,39.02332 43.2409,90.04342 52.5025,152.36316 3.1229,21.01382 4.4717,34.10338 6.3752,61.86907 1.8215,26.56873 3.2207,39.26752 5.9942,54.40252 7.4579,40.69712 20.8011,71.36854 39.4752,90.73993 10.92,11.32779 19.3224,16.8852 31.9601,21.13882 3.3518,1.12815 6.1028,2.40598 6.1134,2.83962 0.056,2.32731 -9.0491,14.34115 -16.4649,21.72356 -9.1039,9.0629 -17.0735,14.75154 -28.0688,20.03534 -7.6388,3.67086 -23.5862,9.09563 -26.7387,9.09563 -2.2987,0 -3.4939,-1.57564 -8.971,-11.82663 -10.0154,-18.74506 -20.6128,-47.00516 -24.9834,-66.62338 -3.0417,-13.65326 -2.9062,-13.45746 -9.1065,-13.15289 -6.6904,0.32865 -24.7326,2.37612 -26.3259,2.98751 -1.6064,0.61645 -1.5742,1.65854 0.3679,11.89935 6.1711,32.5407 20.036,67.01429 41.1602,102.34042 2.5931,4.33643 6.0752,9.30362 7.7381,11.03819 3.9337,4.10336 10.3351,14.90209 13.5541,22.86483 2.4863,6.15025 2.5492,6.60245 2.5254,18.13418 -0.022,10.87086 -0.202,12.33638 -2.222,18.13417 -4.3983,12.62421 -14.5258,30.75687 -23.766,42.55137 l -4.7307,6.03838 -0.1729,-8.52603 c -0.095,-4.68931 -0.5517,-14.20281 -1.0147,-21.1411 -2.1055,-31.55231 -10.6885,-52.06703 -23.256,-55.58574 -4.8617,-1.36118 -13.3497,-0.66482 -17.4562,1.4321 -4.3313,2.21175 -8.5624,7.2851 -10.5897,12.69785 -0.9062,2.41945 -5.1479,15.92997 -9.426,30.02337 -10.4953,34.57473 -14.3723,45.58407 -19.6586,55.82363 l -2.3191,4.4922 z"
       id="path43" />
    <path
       style="fill:#8effeb;fill-opacity:1;stroke-width:0.788442"
       d="m 188.55773,579.38199 c -2.063,-12.64997 -2.6796,-41.6665 -1.1726,-55.18131 1.7485,-15.68056 7.7659,-34.25656 15.7744,-48.69597 6.5566,-11.82155 13.998,-21.55143 24.7696,-32.38683 14.5054,-14.59123 27.3134,-23.9466 46.2787,-33.80332 10.3106,-5.3587 29.6901,-13.83675 31.6286,-13.83675 2.042,0 9.2327,7.18322 11.3594,11.34758 7.214,14.12577 -1.303,37.54619 -20.4093,56.12315 -4.0474,3.93518 -12.8582,11.38437 -19.5797,16.55374 -23.735,18.25415 -39.4946,32.98478 -53.0614,49.59686 -8.3424,10.21505 -23.4951,32.83786 -29.9925,44.77861 -2.5322,4.6535 -4.7185,8.4609 -4.8585,8.4609 -0.14,0 -0.4715,-1.33049 -0.7367,-2.95666 z"
       id="path44" />
    <path
       style="fill:#77d9ff;fill-opacity:1;stroke-width:0.788442"
       d="m 557.16313,572.67056 c -20.2419,-33.66107 -39.0269,-54.58586 -72.5861,-80.85431 -21.5596,-16.87579 -31.5476,-27.0935 -31.5476,-32.27323 0,-1.25072 1.2362,-6.68618 2.747,-12.07879 1.5108,-5.39262 3.6716,-14.41714 4.8017,-20.05451 1.1301,-5.63736 2.3131,-10.52232 2.6289,-10.85546 1.4161,-1.49423 23.5389,9.45927 36.2872,17.9667 23.1447,15.44527 40.7718,33.90593 50.8539,53.25867 11.4124,21.90622 15.4315,39.22015 15.4264,66.45574 0,11.46576 -1.1409,25.06265 -2.2703,27.10805 -0.327,0.59213 -2.8206,-2.81838 -6.3411,-8.67286 z"
       id="path45" />
  </g>
</svg>
